<svg xmlns="http://www.w3.org/2000/svg" id="canvas" viewBox="283.051 379.721 1122.655 168.558"><path d="M 321.66,407.42 C 320.48 408.10, 319.91 408.99, 319.15 411.14 C 318.38 413.29, 318.39 414.76, 317.82 418.17 C 317.25 421.58, 317.17 423.92, 316.32 428.20 C 315.46 432.48, 314.86 434.94, 313.54 439.59 C 312.23 444.25, 311.34 446.80, 309.76 451.48 C 308.17 456.16, 307.24 458.61, 305.62 462.99 C 304.01 467.37, 303.17 469.59, 301.68 473.36 C 300.20 477.14, 299.29 478.89, 298.19 481.87 C 297.09 484.85, 296.64 486.18, 296.20 488.27 C 295.76 490.36, 295.75 491.10, 295.98 492.34 C 296.20 493.58, 296.80 493.98, 297.33 494.46 C 297.85 494.94, 298.29 494.78, 298.58 494.74 C 298.87 494.70, 298.57 494.32, 298.77 494.24 C 298.98 494.17, 299.11 494.52, 299.61 494.36 C 300.10 494.21, 300.58 494.29, 301.25 493.47 C 301.91 492.65, 302.19 492.15, 302.93 490.28 C 303.68 488.40, 304.09 487.09, 304.95 484.09 C 305.82 481.09, 306.12 479.15, 307.27 475.28 C 308.41 471.42, 309.18 469.20, 310.68 464.78 C 312.17 460.36, 313.08 457.89, 314.72 453.18 C 316.37 448.48, 317.30 445.93, 318.90 441.26 C 320.49 436.60, 321.33 434.16, 322.70 429.85 C 324.07 425.55, 324.92 423.27, 325.74 419.75 C 326.55 416.22, 326.92 414.61, 326.79 412.21 C 326.66 409.82, 326.11 408.73, 325.09 407.77 C 324.06 406.81, 322.85 406.75, 321.66 407.42" style="stroke: black; fill: black;"/><path d="M 317.03,403.78 C 318.23 403.95, 318.72 403.44, 320.09 402.77 C 321.47 402.10, 322.15 401.69, 323.91 400.42 C 325.68 399.16, 326.47 397.97, 328.90 396.43 C 331.32 394.90, 332.90 393.97, 336.05 392.76 C 339.20 391.56, 341.18 391.01, 344.64 390.41 C 348.10 389.81, 350.08 389.65, 353.33 389.77 C 356.59 389.88, 358.33 390.29, 360.93 391.01 C 363.54 391.73, 364.67 392.35, 366.36 393.36 C 368.05 394.38, 368.75 394.83, 369.37 396.10 C 369.98 397.36, 369.89 397.88, 369.43 399.68 C 368.97 401.48, 368.64 402.59, 367.07 405.11 C 365.49 407.63, 364.35 409.34, 361.54 412.28 C 358.73 415.22, 356.70 416.95, 353.00 419.81 C 349.31 422.67, 346.94 424.19, 343.08 426.57 C 339.21 428.95, 336.94 429.95, 333.69 431.71 C 330.44 433.47, 328.65 433.78, 326.82 435.36 C 325.00 436.93, 324.64 437.95, 324.56 439.58 C 324.49 441.21, 325.04 442.22, 326.44 443.51 C 327.84 444.80, 329.03 445.59, 331.57 446.02 C 334.10 446.45, 335.81 445.73, 339.11 445.65 C 342.41 445.57, 344.52 445.29, 348.07 445.62 C 351.62 445.95, 353.64 446.32, 356.86 447.29 C 360.08 448.27, 361.73 449.02, 364.17 450.50 C 366.61 451.98, 367.59 452.96, 369.06 454.69 C 370.54 456.42, 371.05 457.21, 371.54 459.14 C 372.03 461.06, 372.01 462.00, 371.52 464.32 C 371.04 466.63, 370.69 467.99, 369.11 470.73 C 367.53 473.46, 366.37 475.10, 363.62 478.00 C 360.88 480.90, 359.09 482.51, 355.38 485.23 C 351.66 487.95, 349.42 489.30, 345.05 491.60 C 340.67 493.89, 338.15 494.98, 333.50 496.70 C 328.84 498.41, 326.28 499.14, 321.75 500.17 C 317.23 501.20, 314.85 501.56, 310.86 501.86 C 306.88 502.15, 304.90 501.98, 301.84 501.65 C 298.78 501.32, 297.47 500.80, 295.57 500.21 C 293.66 499.63, 293.19 499.30, 292.32 498.72 C 291.44 498.13, 291.64 497.91, 291.21 497.31 C 290.78 496.71, 290.93 496.05, 290.16 495.70 C 289.39 495.35, 288.17 494.99, 287.35 495.56 C 286.53 496.14, 285.97 497.04, 286.06 498.58 C 286.16 500.12, 286.40 501.55, 287.83 503.24 C 289.26 504.94, 290.48 506.07, 293.20 507.07 C 295.92 508.08, 297.77 508.19, 301.43 508.28 C 305.09 508.36, 307.18 508.11, 311.48 507.49 C 315.79 506.88, 318.23 506.42, 322.97 505.20 C 327.72 503.98, 330.35 503.21, 335.23 501.40 C 340.11 499.60, 342.72 498.50, 347.38 496.18 C 352.05 493.85, 354.43 492.53, 358.56 489.78 C 362.68 487.04, 364.69 485.50, 368.00 482.44 C 371.30 479.38, 372.87 477.78, 375.08 474.48 C 377.30 471.18, 378.32 469.39, 379.08 465.95 C 379.84 462.50, 379.72 460.50, 378.88 457.26 C 378.05 454.01, 377.12 452.31, 374.91 449.71 C 372.70 447.11, 371.03 446.09, 367.84 444.26 C 364.66 442.43, 362.72 441.77, 359.00 440.55 C 355.28 439.32, 353.11 438.98, 349.24 438.15 C 345.38 437.31, 343.18 436.85, 339.66 436.37 C 336.14 435.89, 334.19 435.36, 331.65 435.74 C 329.10 436.13, 327.96 437.25, 326.93 438.31 C 325.91 439.36, 325.85 440.42, 326.53 441.03 C 327.21 441.63, 328.23 442.05, 330.32 441.33 C 332.42 440.61, 333.83 439.39, 337.00 437.42 C 340.18 435.44, 342.31 434.06, 346.21 431.47 C 350.11 428.88, 352.56 427.40, 356.53 424.49 C 360.49 421.58, 362.70 419.98, 366.06 416.93 C 369.41 413.88, 371.12 412.40, 373.30 409.23 C 375.49 406.07, 376.49 404.31, 376.97 401.09 C 377.45 397.88, 376.97 395.98, 375.70 393.17 C 374.44 390.37, 373.22 388.96, 370.65 387.07 C 368.08 385.19, 366.28 384.61, 362.85 383.74 C 359.42 382.87, 357.36 382.78, 353.50 382.73 C 349.65 382.67, 347.51 382.92, 343.56 383.48 C 339.60 384.03, 337.52 384.52, 333.75 385.51 C 329.98 386.51, 327.92 386.99, 324.69 388.43 C 321.47 389.87, 319.73 390.82, 317.62 392.71 C 315.52 394.59, 314.89 396.01, 314.18 397.86 C 313.47 399.70, 313.50 400.75, 314.07 401.93 C 314.64 403.12, 315.82 403.61, 317.03 403.78" style="stroke: black; fill: black;"/><path d="M 405.74,467.18 C 404.49 467.08, 403.79 467.39, 402.28 468.47 C 400.78 469.54, 399.70 470.38, 398.21 472.55 C 396.71 474.72, 396.23 476.57, 394.79 479.33 C 393.36 482.09, 392.45 483.75, 391.01 486.36 C 389.58 488.97, 388.50 490.28, 387.63 492.38 C 386.76 494.49, 386.47 495.58, 386.66 496.91 C 386.85 498.24, 387.51 498.83, 388.58 499.04 C 389.64 499.24, 390.65 499.05, 391.97 497.94 C 393.29 496.82, 394.10 495.83, 395.18 493.44 C 396.25 491.05, 396.08 489.01, 397.35 486.01 C 398.62 483.00, 399.54 481.29, 401.53 478.40 C 403.52 475.50, 404.81 474.03, 407.30 471.53 C 409.80 469.03, 411.29 467.80, 414.00 465.90 C 416.72 463.99, 418.22 463.20, 420.90 462.00 C 423.57 460.79, 424.97 460.50, 427.40 459.86 C 429.82 459.22, 430.90 458.96, 433.04 458.78 C 435.17 458.59, 435.98 459.04, 438.08 458.92 C 440.18 458.81, 442.27 459.14, 443.53 458.21 C 444.79 457.28, 445.27 455.67, 444.37 454.28 C 443.47 452.89, 441.42 451.93, 439.04 451.25 C 436.66 450.58, 435.24 450.73, 432.47 450.90 C 429.70 451.07, 428.14 451.19, 425.17 452.09 C 422.20 452.98, 420.66 453.76, 417.61 455.40 C 414.57 457.04, 412.95 458.03, 409.93 460.28 C 406.91 462.54, 405.35 463.92, 402.51 466.66 C 399.68 469.40, 398.30 470.98, 395.77 473.99 C 393.24 477.00, 392.04 478.72, 389.87 481.73 C 387.70 484.73, 386.05 486.25, 384.90 489.04 C 383.76 491.82, 383.80 493.51, 384.16 495.66 C 384.53 497.80, 385.39 498.83, 386.75 499.76 C 388.10 500.69, 389.24 500.85, 390.92 500.32 C 392.60 499.79, 393.52 498.96, 395.14 497.11 C 396.76 495.27, 397.38 493.67, 399.02 491.10 C 400.65 488.52, 401.65 486.88, 403.32 484.24 C 405.00 481.59, 406.28 480.20, 407.39 477.86 C 408.50 475.51, 408.67 474.27, 408.90 472.49 C 409.12 470.72, 409.17 470.05, 408.53 468.99 C 407.90 467.92, 406.99 467.29, 405.74 467.18" style="stroke: black; fill: black;"/><path d="M 506.66,460.73 C 506.82 459.40, 506.40 458.39, 505.19 457.08 C 503.98 455.78, 502.94 454.98, 500.62 454.21 C 498.30 453.44, 496.58 453.03, 493.59 453.25 C 490.61 453.48, 489.00 454.10, 485.70 455.35 C 482.39 456.61, 480.61 457.53, 477.06 459.53 C 473.51 461.52, 471.48 462.79, 467.94 465.32 C 464.40 467.84, 462.50 469.37, 459.37 472.14 C 456.24 474.91, 454.54 476.34, 452.29 479.19 C 450.04 482.03, 448.96 483.55, 448.11 486.36 C 447.26 489.18, 447.35 490.79, 448.04 493.26 C 448.74 495.74, 449.58 497.05, 451.58 498.74 C 453.58 500.44, 455.09 501.25, 458.03 501.73 C 460.96 502.22, 462.82 501.95, 466.26 501.17 C 469.71 500.39, 471.56 499.47, 475.24 497.83 C 478.92 496.20, 480.88 495.15, 484.65 492.99 C 488.43 490.83, 490.49 489.55, 494.10 487.02 C 497.72 484.48, 499.57 482.93, 502.72 480.30 C 505.88 477.68, 507.56 476.34, 509.90 473.91 C 512.23 471.49, 513.53 470.31, 514.40 468.18 C 515.27 466.05, 515.12 464.55, 514.24 463.24 C 513.36 461.94, 511.95 461.36, 510.00 461.67 C 508.05 461.97, 506.39 462.71, 504.51 464.77 C 502.64 466.83, 502.13 468.85, 500.62 471.98 C 499.12 475.10, 498.38 477.15, 496.98 480.39 C 495.57 483.62, 494.49 485.20, 493.60 488.16 C 492.70 491.11, 492.52 492.59, 492.52 495.18 C 492.52 497.76, 492.72 499.04, 493.60 501.07 C 494.47 503.10, 495.40 504.15, 496.90 505.34 C 498.39 506.52, 499.60 506.99, 501.07 507.00 C 502.53 507.01, 503.56 506.40, 504.22 505.36 C 504.89 504.33, 504.72 502.89, 504.40 501.81 C 504.08 500.72, 503.33 500.40, 502.63 499.93 C 501.92 499.46, 501.50 499.68, 500.88 499.44 C 500.25 499.20, 499.72 499.41, 499.51 498.72 C 499.30 498.02, 499.37 497.53, 499.82 495.98 C 500.28 494.44, 500.83 493.38, 501.79 490.99 C 502.75 488.60, 503.14 486.85, 504.62 484.01 C 506.09 481.17, 507.42 479.46, 509.17 476.79 C 510.93 474.12, 512.40 472.94, 513.40 470.66 C 514.40 468.38, 514.44 466.98, 514.18 465.39 C 513.92 463.81, 513.22 463.02, 512.09 462.74 C 510.97 462.46, 510.11 462.79, 508.57 464.01 C 507.04 465.24, 506.45 466.57, 504.43 468.87 C 502.41 471.17, 501.25 472.88, 498.48 475.51 C 495.71 478.13, 493.95 479.62, 490.57 481.99 C 487.20 484.35, 485.18 485.52, 481.60 487.34 C 478.01 489.15, 476.03 489.99, 472.64 491.07 C 469.26 492.14, 467.44 492.31, 464.66 492.70 C 461.88 493.10, 460.64 492.98, 458.76 493.06 C 456.88 493.14, 456.22 493.33, 455.25 493.10 C 454.27 492.86, 453.97 492.74, 453.89 491.89 C 453.81 491.05, 454.01 490.52, 454.83 488.86 C 455.64 487.20, 456.17 485.96, 457.96 483.59 C 459.76 481.21, 461.04 479.57, 463.79 477.00 C 466.53 474.44, 468.40 472.96, 471.70 470.75 C 475.00 468.53, 476.99 467.41, 480.30 465.94 C 483.61 464.47, 485.47 464.05, 488.23 463.40 C 490.98 462.75, 492.09 462.72, 494.07 462.69 C 496.06 462.67, 496.72 463.02, 498.16 463.28 C 499.61 463.53, 500.04 463.87, 501.29 463.96 C 502.54 464.05, 503.35 464.38, 504.42 463.74 C 505.50 463.09, 506.51 462.06, 506.66 460.73" style="stroke: black; fill: black;"/><path d="M 592.48,454.99 C 592.59 453.71, 592.20 452.75, 590.94 451.56 C 589.68 450.37, 588.58 449.64, 586.19 449.02 C 583.81 448.40, 582.07 448.07, 579.01 448.45 C 575.95 448.84, 574.25 449.77, 570.89 450.93 C 567.53 452.09, 565.65 452.82, 562.23 454.26 C 558.80 455.70, 556.84 456.42, 553.77 458.11 C 550.71 459.80, 549.01 460.61, 546.91 462.69 C 544.81 464.77, 544.05 466.10, 543.28 468.49 C 542.51 470.88, 542.46 472.29, 543.05 474.65 C 543.65 477.01, 544.46 478.34, 546.24 480.31 C 548.03 482.28, 549.44 483.10, 551.97 484.50 C 554.51 485.90, 556.17 486.27, 558.93 487.30 C 561.68 488.33, 563.28 488.86, 565.73 489.66 C 568.18 490.46, 569.45 490.87, 571.18 491.32 C 572.90 491.78, 573.60 491.91, 574.34 491.94 C 575.07 491.97, 575.19 491.65, 574.86 491.47 C 574.54 491.30, 574.06 490.97, 572.70 491.08 C 571.35 491.18, 570.30 491.27, 568.07 491.98 C 565.85 492.69, 564.45 493.61, 561.60 494.61 C 558.75 495.60, 556.96 496.19, 553.81 496.94 C 550.67 497.69, 548.84 497.94, 545.88 498.34 C 542.91 498.74, 541.35 498.73, 538.99 498.96 C 536.62 499.19, 535.59 499.30, 534.05 499.49 C 532.51 499.69, 532.05 499.62, 531.29 499.93 C 530.54 500.24, 530.52 500.71, 530.26 501.04 C 530.01 501.38, 530.31 501.49, 530.01 501.60 C 529.72 501.71, 529.07 501.30, 528.77 501.61 C 528.48 501.91, 528.28 502.37, 528.53 503.13 C 528.77 503.88, 528.98 504.63, 530.00 505.37 C 531.01 506.10, 531.71 506.39, 533.60 506.79 C 535.49 507.20, 536.77 507.45, 539.45 507.40 C 542.14 507.35, 543.84 507.02, 547.04 506.54 C 550.24 506.07, 552.08 505.63, 555.48 505.03 C 558.87 504.44, 560.77 504.22, 564.02 503.56 C 567.27 502.90, 569.11 502.84, 571.72 501.74 C 574.33 500.64, 575.51 499.79, 577.07 498.07 C 578.64 496.35, 579.20 495.14, 579.53 493.13 C 579.85 491.13, 579.61 489.88, 578.70 488.05 C 577.80 486.23, 576.88 485.45, 574.98 484.02 C 573.09 482.59, 571.72 482.07, 569.23 480.90 C 566.75 479.73, 565.12 479.25, 562.55 478.16 C 559.97 477.08, 558.56 476.40, 556.35 475.49 C 554.14 474.58, 553.00 474.22, 551.49 473.62 C 549.98 473.01, 549.31 472.95, 548.81 472.45 C 548.31 471.95, 548.32 471.84, 548.98 471.11 C 549.65 470.39, 550.39 470.00, 552.13 468.81 C 553.86 467.61, 555.05 466.58, 557.66 465.14 C 560.26 463.69, 562.04 462.76, 565.16 461.58 C 568.27 460.40, 570.26 459.85, 573.22 459.23 C 576.19 458.62, 577.70 458.65, 580.00 458.50 C 582.30 458.35, 583.17 458.49, 584.74 458.48 C 586.30 458.47, 586.69 458.55, 587.83 458.44 C 588.96 458.33, 589.47 458.62, 590.41 457.93 C 591.34 457.24, 592.38 456.26, 592.48 454.99" style="stroke: black; fill: black;"/><path d="M 636.83,448.80 C 636.39 447.62, 635.69 447.01, 634.10 446.36 C 632.51 445.71, 631.29 445.40, 628.86 445.56 C 626.42 445.72, 624.70 446.11, 621.94 447.15 C 619.17 448.19, 617.71 449.22, 615.02 450.78 C 612.33 452.35, 610.78 453.14, 608.49 454.98 C 606.20 456.83, 605.02 457.87, 603.57 460.00 C 602.12 462.14, 601.58 463.36, 601.24 465.65 C 600.91 467.93, 601.07 469.27, 601.89 471.43 C 602.72 473.59, 603.58 474.71, 605.35 476.46 C 607.13 478.21, 608.43 478.89, 610.77 480.18 C 613.11 481.46, 614.61 481.91, 617.06 482.88 C 619.51 483.85, 620.94 484.26, 623.02 485.03 C 625.10 485.79, 626.10 486.18, 627.45 486.70 C 628.80 487.22, 629.29 487.39, 629.77 487.61 C 630.24 487.83, 630.25 487.66, 629.82 487.81 C 629.38 487.95, 628.88 487.90, 627.59 488.33 C 626.30 488.77, 625.38 489.14, 623.37 489.99 C 621.35 490.83, 620.10 491.55, 617.53 492.57 C 614.97 493.59, 613.38 494.27, 610.54 495.10 C 607.70 495.93, 606.10 496.21, 603.33 496.73 C 600.57 497.25, 599.12 497.37, 596.72 497.70 C 594.32 498.03, 593.14 498.01, 591.32 498.37 C 589.51 498.74, 588.78 499.01, 587.64 499.53 C 586.49 500.05, 586.05 500.22, 585.60 500.97 C 585.14 501.71, 585.01 502.42, 585.37 503.24 C 585.73 504.06, 586.16 504.46, 587.41 505.08 C 588.65 505.70, 589.54 506.10, 591.59 506.33 C 593.63 506.57, 594.98 506.49, 597.64 506.28 C 600.31 506.06, 601.89 505.80, 604.91 505.25 C 607.92 504.71, 609.57 504.26, 612.72 503.55 C 615.87 502.83, 617.65 502.57, 620.66 501.68 C 623.66 500.80, 625.28 500.42, 627.75 499.12 C 630.22 497.81, 631.44 496.98, 633.00 495.16 C 634.56 493.34, 635.13 492.10, 635.55 490.01 C 635.97 487.93, 635.80 486.68, 635.10 484.73 C 634.41 482.78, 633.67 481.86, 632.06 480.25 C 630.44 478.65, 629.23 478.02, 627.02 476.72 C 624.81 475.42, 623.37 474.88, 621.02 473.76 C 618.67 472.65, 617.34 472.06, 615.25 471.15 C 613.17 470.24, 612.10 469.81, 610.60 469.19 C 609.10 468.58, 608.42 468.50, 607.77 468.08 C 607.12 467.65, 607.00 467.63, 607.33 467.08 C 607.66 466.52, 608.14 466.20, 609.43 465.31 C 610.72 464.42, 611.74 463.77, 613.78 462.61 C 615.82 461.45, 617.26 460.62, 619.63 459.51 C 622.00 458.40, 623.40 457.89, 625.62 457.08 C 627.85 456.28, 629.05 456.10, 630.75 455.47 C 632.44 454.84, 632.97 454.58, 634.08 453.94 C 635.19 453.30, 635.74 453.29, 636.29 452.27 C 636.84 451.24, 637.26 449.98, 636.83 448.80" style="stroke: black; fill: black;"/><path d="M 689.40,411.15 C 688.21 411.14, 687.86 411.51, 686.60 412.36 C 685.34 413.22, 684.50 413.72, 683.09 415.43 C 681.68 417.13, 680.76 418.56, 679.56 420.88 C 678.36 423.21, 677.68 424.61, 677.09 427.04 C 676.49 429.47, 676.03 431.45, 676.59 433.03 C 677.15 434.61, 678.25 435.23, 679.89 434.94 C 681.53 434.66, 682.96 433.28, 684.79 431.62 C 686.62 429.96, 687.54 428.79, 689.05 426.64 C 690.56 424.50, 691.46 423.06, 692.34 420.90 C 693.22 418.74, 693.41 417.55, 693.45 415.85 C 693.49 414.15, 693.34 413.36, 692.53 412.42 C 691.72 411.48, 690.59 411.16, 689.40 411.15" style="stroke: black; fill: black;"/><path d="M 786.47,466.55 C 786.43 465.22, 785.88 464.22, 784.42 463.04 C 782.96 461.86, 781.74 461.16, 779.16 460.65 C 776.58 460.14, 774.74 459.88, 771.54 460.50 C 768.34 461.13, 766.67 462.15, 763.16 463.77 C 759.64 465.39, 757.70 466.39, 753.97 468.59 C 750.25 470.80, 748.14 472.18, 744.54 474.81 C 740.93 477.45, 739.03 478.96, 735.97 481.76 C 732.91 484.55, 731.22 485.93, 729.24 488.77 C 727.26 491.61, 726.53 493.20, 726.07 495.95 C 725.61 498.69, 725.88 500.19, 726.94 502.50 C 728.00 504.81, 729.04 506.03, 731.38 507.49 C 733.72 508.94, 735.43 509.65, 738.64 509.77 C 741.85 509.89, 743.75 509.16, 747.44 508.10 C 751.13 507.03, 753.15 506.26, 757.10 504.45 C 761.05 502.63, 763.20 501.52, 767.19 499.03 C 771.18 496.54, 773.26 495.08, 777.04 491.98 C 780.81 488.89, 782.69 487.11, 786.08 483.55 C 789.46 480.00, 791.07 478.03, 793.98 474.19 C 796.88 470.36, 798.20 468.27, 800.61 464.38 C 803.01 460.49, 804.07 458.45, 805.99 454.74 C 807.91 451.03, 808.68 449.15, 810.21 445.82 C 811.74 442.49, 812.68 440.99, 813.63 438.08 C 814.58 435.17, 815.18 433.50, 814.95 431.27 C 814.72 429.03, 813.95 427.80, 812.49 426.88 C 811.02 425.97, 809.50 425.71, 807.61 426.70 C 805.73 427.69, 804.72 428.88, 803.06 431.84 C 801.41 434.80, 801.00 437.30, 799.33 441.51 C 797.67 445.71, 796.62 448.34, 794.74 452.88 C 792.87 457.43, 791.78 459.86, 789.96 464.25 C 788.15 468.64, 787.18 470.81, 785.68 474.81 C 784.18 478.82, 783.44 480.76, 782.45 484.28 C 781.47 487.80, 780.92 489.44, 780.76 492.41 C 780.60 495.39, 780.94 496.83, 781.66 499.16 C 782.39 501.49, 783.11 502.61, 784.38 504.05 C 785.64 505.50, 786.65 506.03, 787.98 506.40 C 789.30 506.77, 790.20 506.56, 791.00 505.92 C 791.79 505.27, 791.96 504.10, 791.96 503.18 C 791.97 502.26, 791.48 501.99, 791.04 501.30 C 790.59 500.61, 790.29 500.54, 789.75 499.74 C 789.21 498.95, 788.64 498.71, 788.34 497.32 C 788.04 495.93, 788.15 495.09, 788.25 492.78 C 788.35 490.47, 788.27 488.98, 788.84 485.76 C 789.42 482.55, 789.88 480.58, 791.11 476.70 C 792.35 472.82, 793.24 470.64, 795.04 466.36 C 796.83 462.08, 797.93 459.64, 800.07 455.29 C 802.22 450.94, 803.57 448.45, 805.78 444.60 C 807.98 440.75, 809.73 438.90, 811.11 436.02 C 812.49 433.15, 812.78 431.82, 812.70 430.20 C 812.61 428.58, 811.64 427.99, 810.67 427.94 C 809.71 427.89, 808.81 428.39, 807.87 429.96 C 806.94 431.52, 806.76 433.07, 806.01 435.77 C 805.26 438.46, 805.18 440.16, 804.12 443.44 C 803.07 446.72, 802.36 448.56, 800.72 452.18 C 799.08 455.81, 798.12 457.81, 795.93 461.58 C 793.74 465.35, 792.50 467.37, 789.77 471.04 C 787.05 474.71, 785.52 476.59, 782.29 479.93 C 779.07 483.28, 777.27 484.94, 773.66 487.76 C 770.04 490.58, 768.03 491.90, 764.23 494.02 C 760.42 496.14, 758.31 497.06, 754.62 498.35 C 750.93 499.63, 748.94 500.02, 745.77 500.45 C 742.59 500.89, 741.06 500.47, 738.76 500.52 C 736.47 500.57, 735.60 500.81, 734.29 500.70 C 732.97 500.58, 732.54 500.58, 732.18 499.96 C 731.82 499.34, 731.89 499.00, 732.50 497.61 C 733.11 496.21, 733.64 495.22, 735.23 492.99 C 736.82 490.76, 737.85 489.06, 740.45 486.45 C 743.05 483.83, 744.88 482.32, 748.23 479.92 C 751.58 477.52, 753.67 476.23, 757.20 474.44 C 760.73 472.65, 762.72 471.85, 765.86 470.96 C 769.00 470.07, 770.48 470.18, 772.89 470.01 C 775.31 469.83, 776.20 470.03, 777.94 470.08 C 779.67 470.13, 780.22 470.34, 781.56 470.26 C 782.90 470.19, 783.64 470.47, 784.63 469.72 C 785.61 468.98, 786.51 467.89, 786.47 466.55" style="stroke: black; fill: black;"/><path d="M 821.77,488.80 C 822.17 489.90, 822.64 490.38, 824.05 491.03 C 825.46 491.68, 826.49 492.07, 828.82 492.05 C 831.14 492.03, 832.75 491.81, 835.68 490.93 C 838.61 490.05, 840.28 489.01, 843.46 487.67 C 846.65 486.32, 848.44 485.56, 851.61 484.23 C 854.78 482.89, 856.60 482.43, 859.31 481.00 C 862.03 479.56, 863.39 478.79, 865.20 477.04 C 867.00 475.29, 867.81 474.27, 868.34 472.24 C 868.88 470.21, 868.87 468.78, 867.88 466.87 C 866.89 464.95, 865.83 463.65, 863.40 462.66 C 860.96 461.66, 859.13 461.48, 855.70 461.90 C 852.27 462.32, 850.25 463.31, 846.24 464.76 C 842.23 466.20, 839.87 467.15, 835.65 469.14 C 831.43 471.13, 829.04 472.37, 825.15 474.70 C 821.26 477.03, 819.23 478.27, 816.18 480.80 C 813.13 483.34, 811.49 484.56, 809.89 487.37 C 808.29 490.18, 808.02 491.96, 808.17 494.86 C 808.31 497.76, 808.82 499.43, 810.61 501.86 C 812.39 504.29, 813.89 505.51, 817.08 507.00 C 820.27 508.49, 822.42 508.67, 826.55 509.33 C 830.68 509.99, 833.06 510.08, 837.74 510.31 C 842.42 510.54, 845.06 510.51, 849.93 510.48 C 854.80 510.45, 857.70 510.21, 862.08 510.14 C 866.45 510.06, 868.64 510.31, 871.80 510.11 C 874.97 509.92, 876.09 509.70, 877.91 509.18 C 879.73 508.66, 880.16 508.10, 880.91 507.52 C 881.66 506.94, 881.53 506.75, 881.67 506.27 C 881.82 505.80, 881.83 505.61, 881.63 505.15 C 881.42 504.69, 881.49 504.44, 880.64 503.98 C 879.78 503.52, 879.22 503.05, 877.35 502.86 C 875.48 502.67, 874.42 502.77, 871.30 503.02 C 868.19 503.27, 866.06 503.76, 861.78 504.11 C 857.50 504.46, 854.61 504.73, 849.89 504.76 C 845.18 504.79, 842.58 504.72, 838.20 504.26 C 833.82 503.80, 831.53 503.40, 827.99 502.46 C 824.45 501.52, 822.90 500.63, 820.49 499.56 C 818.09 498.49, 817.21 498.09, 815.98 497.11 C 814.76 496.13, 814.35 495.85, 814.36 494.66 C 814.37 493.47, 814.81 492.93, 816.03 491.15 C 817.25 489.37, 818.02 487.99, 820.47 485.75 C 822.93 483.50, 824.77 482.09, 828.31 479.93 C 831.85 477.76, 834.21 476.55, 838.20 474.92 C 842.18 473.29, 844.56 472.53, 848.24 471.78 C 851.93 471.03, 853.91 471.36, 856.62 471.17 C 859.33 470.98, 860.34 471.07, 861.81 470.84 C 863.28 470.60, 863.62 470.24, 863.98 470.00 C 864.33 469.75, 864.24 469.48, 863.58 469.63 C 862.92 469.77, 862.30 470.01, 860.66 470.74 C 859.02 471.48, 857.82 472.10, 855.38 473.30 C 852.94 474.49, 851.41 475.49, 848.46 476.72 C 845.51 477.96, 843.69 478.65, 840.63 479.47 C 837.57 480.28, 835.81 480.28, 833.16 480.79 C 830.51 481.30, 829.24 481.42, 827.38 482.01 C 825.52 482.59, 824.94 482.98, 823.87 483.69 C 822.80 484.40, 822.47 484.54, 822.05 485.56 C 821.62 486.58, 821.37 487.71, 821.77 488.80" style="stroke: black; fill: black;"/><path d="M 1043.31,416.90 C 1042.15 417.00, 1041.83 417.39, 1040.57 418.56 C 1039.31 419.73, 1038.49 420.28, 1037.01 422.73 C 1035.54 425.19, 1035.25 427.25, 1033.22 430.83 C 1031.18 434.42, 1029.80 436.53, 1026.85 440.67 C 1023.90 444.81, 1021.96 447.11, 1018.45 451.53 C 1014.93 455.95, 1012.90 458.33, 1009.28 462.77 C 1005.65 467.20, 1003.69 469.56, 1000.32 473.70 C 996.95 477.84, 995.25 479.89, 992.43 483.48 C 989.61 487.08, 988.20 488.64, 986.23 491.67 C 984.26 494.71, 983.37 496.03, 982.57 498.65 C 981.78 501.27, 981.84 502.53, 982.26 504.78 C 982.68 507.03, 983.21 508.14, 984.66 509.90 C 986.12 511.66, 987.19 512.50, 989.55 513.58 C 991.90 514.66, 993.34 515.11, 996.42 515.32 C 999.50 515.52, 1001.28 514.96, 1004.95 514.59 C 1008.61 514.21, 1010.65 513.93, 1014.73 513.45 C 1018.81 512.97, 1021.07 512.67, 1025.35 512.18 C 1029.62 511.70, 1031.96 511.40, 1036.11 511.03 C 1040.26 510.66, 1042.59 510.61, 1046.11 510.32 C 1049.64 510.04, 1051.29 510.18, 1053.73 509.60 C 1056.17 509.02, 1057.43 508.40, 1058.31 507.42 C 1059.19 506.44, 1059.14 505.56, 1058.14 504.69 C 1057.14 503.83, 1055.84 503.37, 1053.31 503.11 C 1050.78 502.86, 1049.07 503.07, 1045.50 503.41 C 1041.93 503.76, 1039.60 504.31, 1035.44 504.83 C 1031.29 505.35, 1028.97 505.64, 1024.72 506.02 C 1020.48 506.40, 1018.21 506.59, 1014.21 506.73 C 1010.22 506.88, 1008.15 506.94, 1004.75 506.74 C 1001.34 506.55, 999.75 506.02, 997.20 505.77 C 994.65 505.51, 993.64 505.59, 991.99 505.47 C 990.34 505.35, 989.77 505.44, 988.95 505.15 C 988.14 504.86, 987.92 504.87, 987.92 504.02 C 987.92 503.16, 988.21 502.69, 988.96 500.86 C 989.70 499.04, 990.10 497.75, 991.64 494.89 C 993.18 492.04, 994.18 490.22, 996.66 486.57 C 999.13 482.91, 1000.77 480.80, 1004.01 476.62 C 1007.24 472.44, 1009.18 470.07, 1012.81 465.66 C 1016.44 461.26, 1018.48 458.90, 1022.16 454.59 C 1025.84 450.27, 1027.85 448.03, 1031.22 444.08 C 1034.58 440.13, 1036.22 438.14, 1038.98 434.85 C 1041.74 431.56, 1043.40 430.23, 1045.02 427.62 C 1046.64 425.01, 1046.81 423.71, 1047.08 421.79 C 1047.35 419.88, 1047.13 419.03, 1046.38 418.05 C 1045.63 417.07, 1044.47 416.80, 1043.31 416.90" style="stroke: black; fill: black;"/><path d="M 1124.80,411.26 C 1123.52 411.43, 1123.14 412.09, 1121.69 413.33 C 1120.23 414.57, 1118.55 415.02, 1117.51 417.45 C 1116.47 419.89, 1115.64 423.34, 1116.49 425.51 C 1117.35 427.68, 1119.51 428.84, 1121.79 428.30 C 1124.07 427.75, 1126.49 425.13, 1127.91 422.79 C 1129.32 420.44, 1128.84 418.63, 1128.87 416.57 C 1128.90 414.51, 1128.87 413.54, 1128.06 412.47 C 1127.24 411.41, 1126.07 411.08, 1124.80 411.26" style="stroke: black; fill: black;"/><path d="M 1178.08,425.92 C 1177.07 425.23, 1176.19 424.91, 1174.27 425.35 C 1172.35 425.78, 1171.06 426.27, 1168.47 428.10 C 1165.88 429.94, 1164.63 431.60, 1161.32 434.52 C 1158.01 437.44, 1155.92 439.24, 1151.92 442.70 C 1147.92 446.16, 1145.55 448.14, 1141.33 451.82 C 1137.11 455.50, 1134.76 457.46, 1130.82 461.09 C 1126.88 464.72, 1124.87 466.60, 1121.64 469.98 C 1118.41 473.35, 1116.90 474.93, 1114.67 477.98 C 1112.44 481.03, 1111.39 482.39, 1110.47 485.23 C 1109.55 488.08, 1109.58 489.60, 1110.06 492.21 C 1110.54 494.82, 1111.17 496.17, 1112.85 498.28 C 1114.53 500.39, 1115.82 501.42, 1118.47 502.75 C 1121.12 504.09, 1122.87 504.39, 1126.13 504.97 C 1129.38 505.56, 1131.27 505.49, 1134.72 505.67 C 1138.17 505.85, 1140.07 505.81, 1143.38 505.88 C 1146.68 505.95, 1148.39 506.19, 1151.26 506.02 C 1154.14 505.85, 1155.53 505.65, 1157.77 505.01 C 1160.00 504.38, 1161.52 503.93, 1162.42 502.84 C 1163.32 501.76, 1163.26 500.57, 1162.26 499.57 C 1161.27 498.58, 1159.69 498.30, 1157.44 497.87 C 1155.19 497.44, 1153.82 497.43, 1151.02 497.42 C 1148.23 497.41, 1146.59 497.80, 1143.46 497.81 C 1140.33 497.81, 1138.49 497.77, 1135.37 497.43 C 1132.25 497.10, 1130.55 496.71, 1127.85 496.13 C 1125.15 495.56, 1123.86 495.13, 1121.87 494.55 C 1119.88 493.96, 1119.02 493.89, 1117.89 493.21 C 1116.76 492.52, 1116.39 492.27, 1116.20 491.12 C 1116.01 489.97, 1116.22 489.38, 1116.94 487.44 C 1117.65 485.51, 1118.05 484.22, 1119.77 481.43 C 1121.49 478.64, 1122.66 476.86, 1125.53 473.50 C 1128.40 470.14, 1130.33 468.23, 1134.13 464.64 C 1137.93 461.05, 1140.27 459.09, 1144.52 455.56 C 1148.76 452.03, 1151.17 450.09, 1155.35 446.98 C 1159.53 443.87, 1161.76 442.28, 1165.42 440.01 C 1169.07 437.73, 1171.12 437.28, 1173.63 435.61 C 1176.14 433.94, 1176.83 433.02, 1177.97 431.66 C 1179.12 430.30, 1179.33 429.95, 1179.35 428.80 C 1179.37 427.66, 1179.10 426.61, 1178.08 425.92" style="stroke: black; fill: black;"/><path d="M 1131.52,466.37 C 1132.29 467.26, 1132.88 467.37, 1134.32 467.64 C 1135.76 467.90, 1136.63 467.94, 1138.71 467.68 C 1140.80 467.42, 1142.13 467.06, 1144.74 466.34 C 1147.36 465.62, 1148.90 464.87, 1151.77 464.10 C 1154.65 463.33, 1156.30 463.15, 1159.11 462.50 C 1161.92 461.86, 1163.64 461.53, 1165.81 460.87 C 1167.98 460.20, 1168.71 459.84, 1169.97 459.17 C 1171.23 458.50, 1171.52 458.10, 1172.11 457.51 C 1172.70 456.92, 1172.77 456.81, 1172.90 456.23 C 1173.03 455.66, 1173.02 455.18, 1172.77 454.64 C 1172.52 454.09, 1172.41 453.94, 1171.63 453.52 C 1170.85 453.09, 1170.36 452.74, 1168.88 452.52 C 1167.40 452.30, 1166.54 452.22, 1164.22 452.40 C 1161.89 452.58, 1160.13 452.90, 1157.25 453.42 C 1154.37 453.93, 1152.82 454.50, 1149.82 454.99 C 1146.82 455.48, 1145.04 455.30, 1142.26 455.87 C 1139.47 456.44, 1137.95 456.90, 1135.90 457.82 C 1133.85 458.74, 1133.11 459.39, 1132.02 460.47 C 1130.93 461.54, 1130.56 462.00, 1130.46 463.18 C 1130.36 464.36, 1130.75 465.48, 1131.52 466.37" style="stroke: black; fill: black;"/><path d="M 1182.45,450.42 C 1181.34 450.86, 1180.97 451.27, 1180.37 452.37 C 1179.78 453.46, 1179.47 454.24, 1179.47 455.89 C 1179.47 457.54, 1179.70 458.70, 1180.37 460.64 C 1181.03 462.58, 1181.61 463.67, 1182.80 465.58 C 1183.99 467.49, 1184.68 468.50, 1186.30 470.17 C 1187.93 471.84, 1188.86 472.66, 1190.94 473.94 C 1193.02 475.22, 1194.21 475.83, 1196.70 476.57 C 1199.19 477.31, 1200.63 477.55, 1203.40 477.66 C 1206.17 477.77, 1207.70 477.60, 1210.57 477.12 C 1213.44 476.63, 1214.94 476.18, 1217.75 475.22 C 1220.56 474.26, 1222.01 473.60, 1224.61 472.30 C 1227.21 471.01, 1228.57 470.23, 1230.76 468.75 C 1232.94 467.27, 1234.08 466.43, 1235.54 464.90 C 1236.99 463.38, 1237.45 462.48, 1238.04 461.10 C 1238.64 459.73, 1238.80 459.00, 1238.51 458.04 C 1238.21 457.09, 1237.49 456.56, 1236.56 456.33 C 1235.63 456.09, 1235.07 456.44, 1233.85 456.87 C 1232.63 457.29, 1232.01 457.59, 1230.44 458.46 C 1228.87 459.32, 1227.97 460.06, 1226.00 461.19 C 1224.04 462.32, 1222.85 463.04, 1220.61 464.11 C 1218.37 465.18, 1217.12 465.75, 1214.79 466.53 C 1212.46 467.32, 1211.21 467.64, 1208.97 468.05 C 1206.73 468.47, 1205.57 468.59, 1203.59 468.60 C 1201.61 468.61, 1200.70 468.50, 1199.07 468.09 C 1197.44 467.68, 1196.71 467.32, 1195.45 466.56 C 1194.18 465.80, 1193.62 465.34, 1192.75 464.28 C 1191.87 463.22, 1191.58 462.54, 1191.08 461.24 C 1190.59 459.94, 1190.57 459.13, 1190.28 457.77 C 1189.99 456.41, 1190.05 455.64, 1189.64 454.44 C 1189.24 453.24, 1188.99 452.62, 1188.25 451.77 C 1187.51 450.91, 1187.08 450.44, 1185.92 450.17 C 1184.76 449.90, 1183.56 449.98, 1182.45 450.42" style="stroke: black; fill: black;"/><path d="M 1243.17,454.02 C 1241.97 453.77, 1241.23 453.86, 1239.53 454.93 C 1237.83 456.00, 1236.89 456.81, 1234.66 459.35 C 1232.44 461.90, 1231.37 463.92, 1228.42 467.65 C 1225.46 471.37, 1223.63 473.59, 1219.91 478.00 C 1216.19 482.40, 1213.93 484.88, 1209.82 489.67 C 1205.71 494.46, 1203.44 497.09, 1199.35 501.96 C 1195.26 506.82, 1193.08 509.42, 1189.37 513.98 C 1185.65 518.53, 1183.81 520.87, 1180.77 524.72 C 1177.73 528.58, 1176.21 530.34, 1174.15 533.26 C 1172.10 536.17, 1171.39 537.36, 1170.50 539.30 C 1169.62 541.25, 1169.68 541.87, 1169.72 542.99 C 1169.76 544.12, 1170.27 544.48, 1170.69 544.92 C 1171.11 545.37, 1171.64 545.30, 1171.82 545.22 C 1171.99 545.14, 1171.51 544.56, 1171.58 544.52 C 1171.65 544.47, 1171.75 544.94, 1172.19 544.99 C 1172.62 545.04, 1173.01 545.28, 1173.77 544.75 C 1174.52 544.22, 1174.87 543.97, 1175.97 542.33 C 1177.07 540.70, 1177.52 539.51, 1179.26 536.56 C 1181.00 533.61, 1182.00 531.57, 1184.69 527.59 C 1187.38 523.60, 1189.15 521.23, 1192.71 516.64 C 1196.27 512.04, 1198.43 509.43, 1202.50 504.61 C 1206.57 499.78, 1208.84 497.18, 1213.05 492.52 C 1217.27 487.86, 1219.58 485.44, 1223.57 481.31 C 1227.57 477.18, 1229.59 475.12, 1233.03 471.87 C 1236.47 468.61, 1238.41 467.43, 1240.78 465.04 C 1243.14 462.65, 1243.91 461.68, 1244.86 459.91 C 1245.80 458.15, 1245.85 457.38, 1245.51 456.21 C 1245.18 455.03, 1244.36 454.28, 1243.17 454.02" style="stroke: black; fill: black;"/><path d="M 1278.43,454.03 C 1277.17 454.23, 1276.74 454.89, 1275.48 456.13 C 1274.22 457.38, 1273.44 458.15, 1272.14 460.25 C 1270.84 462.35, 1270.31 464.10, 1268.97 466.65 C 1267.62 469.20, 1266.73 470.62, 1265.43 473.01 C 1264.14 475.40, 1263.27 476.64, 1262.49 478.59 C 1261.70 480.54, 1261.31 481.47, 1261.50 482.76 C 1261.69 484.04, 1262.34 484.69, 1263.44 485.03 C 1264.53 485.37, 1265.57 485.34, 1266.98 484.44 C 1268.39 483.54, 1269.26 482.67, 1270.50 480.53 C 1271.75 478.38, 1271.79 476.48, 1273.21 473.70 C 1274.63 470.93, 1275.57 469.30, 1277.60 466.66 C 1279.64 464.01, 1280.98 462.66, 1283.39 460.47 C 1285.81 458.29, 1287.23 457.28, 1289.67 455.72 C 1292.12 454.17, 1293.41 453.67, 1295.62 452.70 C 1297.83 451.73, 1298.82 451.29, 1300.72 450.88 C 1302.63 450.47, 1303.45 450.49, 1305.14 450.65 C 1306.84 450.81, 1307.62 451.32, 1309.19 451.68 C 1310.76 452.03, 1311.56 452.38, 1313.00 452.41 C 1314.43 452.44, 1315.42 452.52, 1316.38 451.84 C 1317.34 451.15, 1317.91 450.20, 1317.78 448.98 C 1317.66 447.77, 1317.05 446.84, 1315.76 445.74 C 1314.47 444.65, 1313.39 444.10, 1311.35 443.50 C 1309.30 442.90, 1307.97 442.79, 1305.54 442.74 C 1303.10 442.69, 1301.82 442.76, 1299.18 443.27 C 1296.54 443.77, 1295.10 444.06, 1292.35 445.28 C 1289.60 446.50, 1288.19 447.41, 1285.41 449.35 C 1282.63 451.30, 1281.19 452.53, 1278.45 454.99 C 1275.71 457.44, 1274.30 458.90, 1271.73 461.63 C 1269.16 464.37, 1267.84 465.93, 1265.61 468.66 C 1263.37 471.39, 1261.79 472.74, 1260.56 475.29 C 1259.33 477.84, 1259.23 479.39, 1259.46 481.42 C 1259.70 483.45, 1260.47 484.47, 1261.72 485.44 C 1262.96 486.41, 1264.09 486.66, 1265.70 486.26 C 1267.30 485.86, 1268.11 485.07, 1269.72 483.45 C 1271.34 481.82, 1272.14 480.50, 1273.77 478.12 C 1275.39 475.75, 1276.30 474.23, 1277.85 471.59 C 1279.40 468.94, 1280.53 467.38, 1281.51 464.89 C 1282.48 462.39, 1282.66 461.06, 1282.71 459.11 C 1282.77 457.16, 1282.64 456.16, 1281.78 455.14 C 1280.92 454.13, 1279.69 453.83, 1278.43 454.03" style="stroke: black; fill: black;"/><path d="M 1334.48,473.72 C 1335.45 474.54, 1336.20 474.58, 1338.09 474.62 C 1339.99 474.67, 1341.31 474.80, 1343.96 473.96 C 1346.61 473.12, 1348.22 471.90, 1351.35 470.44 C 1354.47 468.98, 1356.30 468.13, 1359.59 466.67 C 1362.87 465.21, 1364.75 464.55, 1367.78 463.14 C 1370.81 461.73, 1372.48 461.22, 1374.76 459.63 C 1377.04 458.04, 1378.05 457.11, 1379.17 455.19 C 1380.29 453.28, 1380.66 452.07, 1380.36 450.06 C 1380.06 448.05, 1379.49 446.65, 1377.66 445.15 C 1375.84 443.64, 1374.31 442.66, 1371.23 442.52 C 1368.14 442.37, 1366.16 443.27, 1362.26 444.42 C 1358.35 445.57, 1356.02 446.44, 1351.69 448.27 C 1347.37 450.09, 1344.85 451.26, 1340.65 453.56 C 1336.44 455.85, 1334.18 457.19, 1330.66 459.75 C 1327.14 462.30, 1325.26 463.51, 1323.04 466.34 C 1320.82 469.16, 1320.00 470.86, 1319.56 473.89 C 1319.12 476.92, 1319.42 478.77, 1320.84 481.49 C 1322.25 484.21, 1323.59 485.67, 1326.64 487.50 C 1329.69 489.32, 1331.86 489.65, 1336.08 490.62 C 1340.31 491.59, 1342.79 491.84, 1347.75 492.34 C 1352.72 492.85, 1355.60 492.94, 1360.93 493.14 C 1366.26 493.35, 1369.21 493.31, 1374.41 493.36 C 1379.62 493.42, 1382.56 493.40, 1386.93 493.42 C 1391.31 493.45, 1393.30 493.82, 1396.30 493.48 C 1399.29 493.13, 1400.79 492.58, 1401.90 491.69 C 1403.00 490.79, 1402.97 489.85, 1401.83 489.01 C 1400.69 488.18, 1399.20 487.75, 1396.20 487.50 C 1393.20 487.25, 1391.21 487.61, 1386.85 487.76 C 1382.50 487.90, 1379.55 488.19, 1374.42 488.24 C 1369.28 488.29, 1366.36 488.31, 1361.18 488.00 C 1356.00 487.68, 1353.17 487.44, 1348.51 486.67 C 1343.85 485.89, 1341.47 485.32, 1337.88 484.13 C 1334.28 482.94, 1332.80 481.94, 1330.53 480.72 C 1328.26 479.49, 1327.47 479.15, 1326.53 478.01 C 1325.59 476.87, 1325.45 476.50, 1325.82 475.02 C 1326.20 473.55, 1326.69 472.70, 1328.40 470.62 C 1330.10 468.54, 1331.33 467.01, 1334.35 464.64 C 1337.36 462.28, 1339.53 460.86, 1343.46 458.80 C 1347.38 456.73, 1349.88 455.64, 1353.96 454.31 C 1358.05 452.98, 1360.44 452.55, 1363.90 452.13 C 1367.36 451.71, 1369.01 452.38, 1371.25 452.22 C 1373.48 452.06, 1374.12 451.70, 1375.08 451.35 C 1376.04 451.00, 1376.15 450.61, 1376.03 450.48 C 1375.91 450.34, 1375.59 450.27, 1374.47 450.70 C 1373.36 451.12, 1372.46 451.54, 1370.44 452.60 C 1368.41 453.65, 1367.13 454.61, 1364.35 455.97 C 1361.58 457.34, 1359.81 458.18, 1356.58 459.43 C 1353.35 460.67, 1351.45 461.25, 1348.22 462.20 C 1345.00 463.15, 1343.01 463.15, 1340.45 464.18 C 1337.89 465.22, 1336.87 466.10, 1335.43 467.38 C 1333.98 468.66, 1333.42 469.30, 1333.23 470.57 C 1333.04 471.84, 1333.50 472.91, 1334.48 473.72" style="stroke: black; fill: black;"/></svg>