<?xml version="1.0" encoding="UTF-8" standalone="no"?>
<!-- Generator: Adobe Illustrator 19.2.1, SVG Export Plug-In . SVG Version: 6.00 Build 0)  -->

<svg
   xmlns:dc="http://purl.org/dc/elements/1.1/"
   xmlns:cc="http://creativecommons.org/ns#"
   xmlns:rdf="http://www.w3.org/1999/02/22-rdf-syntax-ns#"
   xmlns:svg="http://www.w3.org/2000/svg"
   xmlns="http://www.w3.org/2000/svg"
   xmlns:sodipodi="http://sodipodi.sourceforge.net/DTD/sodipodi-0.dtd"
   xmlns:inkscape="http://www.inkscape.org/namespaces/inkscape"
   version="1.1"
   id="Layer_1"
   x="0px"
   y="0px"
   viewBox="0 0 298.5 348.4"
   enable-background="new 0 0 298.5 348.4"
   xml:space="preserve"
   sodipodi:docname="0.svg"
   inkscape:version="0.92.5 (2060ec1f9f, 2020-04-08)"><metadata
   id="metadata151"><rdf:RDF><cc:Work
       rdf:about=""><dc:format>image/svg+xml</dc:format><dc:type
         rdf:resource="http://purl.org/dc/dcmitype/StillImage" /></cc:Work></rdf:RDF></metadata><defs
   id="defs149">
	
	
	

	
	
	

		
		
		
		
		
		
	
			
			
		
			
			
			
			
			
		
				
				
			
				
				
			
				
				
			
				
				
			
				
				
			
			
			
			
			
		
				
				
			
				
				
			
				
				
			
				
				
			
			
			
			
		
				
				
			
				
				
			
				
				
			
			
			
		
				
				
			
				
				
			
			
			
		</defs><sodipodi:namedview
   pagecolor="#ffffff"
   bordercolor="#666666"
   borderopacity="1"
   objecttolerance="10"
   gridtolerance="10"
   guidetolerance="10"
   inkscape:pageopacity="0"
   inkscape:pageshadow="2"
   inkscape:window-width="1330"
   inkscape:window-height="740"
   id="namedview147"
   showgrid="false"
   inkscape:zoom="1.6475316"
   inkscape:cx="149.25"
   inkscape:cy="174.2"
   inkscape:window-x="36"
   inkscape:window-y="0"
   inkscape:window-maximized="1"
   inkscape:current-layer="Layer_1" />

<g
   id="g1185"
   transform="matrix(2.0764741,0,0,2.0764741,-322.85415,-8.114429)"><path
     d="m 243.6,29.2 c -0.3,0 -0.5,0 -0.8,-0.1 C 242,28.9 241.5,28.5 241.2,28 241,27.6 241,27.3 241,27 l -1.1,0.6 -0.8,-2.9 c -0.2,-0.7 -0.4,-1.4 -0.6,-2.2 -1.4,-4.9 -0.5,-6.7 4.5,-8.4 1.9,-0.7 3.1,-1.1 4.2,-1.1 2.2,0 3.1,1.6 4.8,4.4 l 0.1,0.1 c 0.9,1.5 1.7,3 1.1,4.6 -0.4,1.1 -1.3,2 -2.8,2.6 -0.4,0.1 -0.7,0.5 -1.1,1 -0.7,0.7 -1.5,1.7 -2.9,2 l -0.6,0.1 c -0.5,0.9 -1.2,1.4 -2.2,1.4 z"
     id="path18"
     inkscape:connector-curvature="0"
     style="fill:#08a642;fill-opacity:1" /><path
     d="m 247.1,14.5 c 1.3,0 2,1 3.6,3.8 1.2,2 2,3.8 -0.9,5 -1.5,0.6 -2,2.5 -3.7,2.9 -0.5,-1.2 0.9,-2.4 -0.3,-3.7 -1.4,0.9 -0.8,2.4 -1.1,3.6 -0.1,0.7 -0.1,1.6 -1,1.6 -0.1,0 -0.3,0 -0.4,-0.1 -1.3,-0.3 -0.5,-1.1 -0.4,-1.8 0.1,-1.6 1.5,-2.9 1.2,-4.9 -1.4,1.5 -1.4,3.4 -3.1,4.4 -0.3,-1 -0.6,-2.1 -1,-3.2 -1.2,-4.1 -0.7,-5.1 3.5,-6.6 1.7,-0.7 2.7,-1 3.6,-1 m 0,-3 v 0 c -1.3,0 -2.7,0.5 -4.7,1.2 -5.7,2 -7.1,4.6 -5.4,10.3 0.2,0.8 0.4,1.5 0.7,2.3 l 0.3,1 1.1,3.6 1.2,-0.7 c 0.4,0.6 1.1,1.1 2.3,1.4 0.4,0.1 0.8,0.1 1.2,0.1 0.7,0 2.2,-0.2 3.1,-1.6 1.8,-0.4 2.9,-1.6 3.6,-2.4 0.2,-0.2 0.4,-0.5 0.6,-0.6 1.9,-0.8 3.1,-1.9 3.6,-3.5 0.8,-2.4 -0.5,-4.7 -1.3,-5.9 l -0.1,-0.1 c -1.9,-3 -3.2,-5.1 -6.2,-5.1 z"
     id="path20"
     inkscape:connector-curvature="0" /><path
     style="fill:#08a642;fill-opacity:1"
     inkscape:connector-curvature="0"
     id="path24"
     d="m 224.2,45.4 -1.3,-1.1 c -2.3,-1.9 -2.2,-3.9 -1.8,-5.7 0.4,-1.7 1.1,-3.2 1.8,-4.6 -1.3,-0.3 -1.7,-1.5 -1.8,-1.9 0,-0.1 0,-0.1 -0.1,-0.2 -1.9,-4.4 -0.7,-8.4 3.3,-11.6 1.6,-1.3 3.3,-2.5 5,-3.6 1.3,-0.9 2.5,-1.8 3.8,-2.7 0.4,-0.3 1,-0.8 1.8,-0.8 0.5,0 1.4,0.2 2,1.4 l 0.2,0.5 c 1.5,3.2 3.1,6.6 3.4,10.4 0.4,4.5 -1.2,7.5 -5,9.1 -3.6,1.5 -5.9,3.4 -7.9,6.4 l -2.4,3.8 -0.2,1.2 -0.4,-0.3 -0.4,0.6 z" /><path
     inkscape:connector-curvature="0"
     id="path26"
     d="m 234.8,14.7 c 0.2,0 0.4,0.2 0.6,0.6 1.6,3.3 3.2,6.7 3.5,10.4 0.3,3.4 -0.6,6.1 -4.1,7.6 -3.2,1.3 -6.1,3.2 -8.5,7 0.5,-4.2 2.6,-7.1 3,-11.3 -3.3,4.6 -4.7,9.2 -5.5,14.2 -1.6,-1.3 -1.6,-2.7 -1.3,-4.2 0.8,-3.4 3,-6.3 3.7,-9.7 0,0 0,0 0,0 0,0 0,0 0,0 0,0 0,0 0,-0.1 0,0 0.1,0 0.1,-0.1 0,0 0,-0.1 0,-0.2 0,0.1 -0.1,0.1 -0.1,0.2 0,0 -0.1,0 -0.1,0 0,0 0,0 0,0 -1.5,0 -1.6,1.4 -2.2,2.3 -0.2,0.4 -0.2,1 -0.8,1 0,0 0,0 0,0 -0.7,0 -0.7,-0.7 -0.9,-1.2 -1.7,-4 -0.4,-7.3 2.8,-9.8 2.8,-2.2 5.8,-4.2 8.7,-6.4 0.6,-0.1 0.9,-0.3 1.1,-0.3 m 0,-3 c -1.3,0 -2.2,0.7 -2.7,1.1 -1.2,0.9 -2.5,1.8 -3.7,2.7 -1.7,1.2 -3.4,2.4 -5,3.7 -4.5,3.5 -5.9,8.2 -3.8,13.3 v 0.1 c 0.3,1 0.8,1.7 1.3,2.1 -0.5,1.1 -1,2.3 -1.3,3.6 -0.4,1.9 -0.7,4.8 2.3,7.2 l 0.7,0.6 -0.7,6.3 2.9,-4.5 1.1,0.9 0.6,-3.5 2.3,-3.5 c 1.8,-2.7 3.9,-4.4 7.2,-5.8 4.4,-1.9 6.4,-5.4 5.9,-10.6 -0.4,-4.1 -2,-7.6 -3.6,-10.9 L 238.1,14 c -0.9,-2 -2.6,-2.3 -3.3,-2.3 z" /><path
     style="fill:#08a642;fill-opacity:1"
     inkscape:connector-curvature="0"
     id="path30"
     d="m 246.9,49.1 c -0.7,-2.1 -0.2,-3.9 0.5,-5.4 L 246.7,42 c -0.4,-0.9 -0.8,-1.7 -1.1,-2.5 -0.9,-1.8 -1.7,-3.6 -2.2,-5.5 -1,-3.9 1.5,-6.2 3.6,-8.1 0.3,-0.3 0.6,-0.6 0.9,-0.9 1.8,-1.8 4.1,-2.3 6.1,-2.8 0.5,-0.1 1,-0.3 1.5,-0.4 0.4,-0.1 0.7,-0.2 1.1,-0.2 0.9,0 1.5,0.4 1.8,0.7 0.6,0.6 0.8,1.5 0.8,2.6 -0.1,2.2 0.5,4.3 1.8,6.9 0.5,0.9 1.3,2.5 0.6,4 -0.4,1 -1.4,1.7 -2.9,2.1 -1.1,0.3 -2.4,1.2 -3.6,2.6 l -0.6,0.7 -0.9,-0.3 c -0.2,0 -0.3,-0.1 -0.4,-0.2 -0.1,0.3 -0.1,0.6 -0.2,0.9 -0.5,2.6 -1.1,5.6 -3.6,8 l -1.7,1.7 z" /><path
     inkscape:connector-curvature="0"
     id="path32"
     d="m 256.6,23.1 c 0.9,0 1.2,0.8 1.2,1.8 -0.1,2.7 0.8,5.2 2,7.6 0.9,1.6 1.5,3.2 -1.4,4 -1.6,0.4 -3.1,1.7 -4.3,3 -1.4,-0.4 -0.2,-1.8 -1.3,-2.4 -1.7,3.7 -1,8.3 -4.4,11.5 -1.1,-3.4 1.7,-5.7 2,-8.5 0.1,-1.5 1.4,-4.1 0.5,-4.2 -0.1,0 -0.2,0 -0.2,0 -1.4,0 -0.7,2.4 -1.5,3.5 -0.4,0.5 -0.6,1.1 -1.1,1.9 -1.2,-2.8 -2.6,-5.2 -3.2,-7.8 -0.9,-3.5 2,-5.5 4.1,-7.5 1.9,-1.9 4.6,-2.2 7,-2.9 0.2,0 0.4,0 0.6,0 m 0,-3 c -0.5,0 -1,0.1 -1.5,0.2 -0.5,0.1 -1,0.3 -1.5,0.4 -2.1,0.5 -4.7,1.2 -6.8,3.2 -0.3,0.3 -0.6,0.6 -0.9,0.8 -2.1,1.9 -5.2,4.8 -4,9.5 0.5,2.1 1.4,3.9 2.3,5.8 0.4,0.8 0.8,1.6 1.1,2.4 l 0.5,1.2 c -0.6,1.6 -1,3.5 -0.3,5.9 l 1.5,4.6 3.5,-3.3 c 2.6,-2.5 3.4,-5.5 3.9,-8 l 0.7,0.2 1.3,-1.4 c 1.1,-1.1 2.1,-1.9 2.9,-2.1 2,-0.5 3.3,-1.5 3.9,-3 1,-2.2 -0.1,-4.3 -0.7,-5.3 -1.2,-2.3 -1.7,-4.2 -1.7,-6.2 0,-1.6 -0.4,-2.8 -1.2,-3.7 -0.9,-0.8 -1.9,-1.2 -3,-1.2 z" /><path
     style="fill:#08a642;fill-opacity:1"
     inkscape:connector-curvature="0"
     id="path38"
     d="m 253.5,68 c 0.1,-1 0.3,-2 0.6,-2.8 l -0.8,0.3 c 0,0 -1.2,-3.4 -1.6,-4.4 -0.9,-2.5 -1.9,-5 -2.7,-7.6 -0.7,-2.1 0,-3.9 0.6,-5.4 0.2,-0.4 0.3,-0.8 0.5,-1.2 2.1,-6.7 7.9,-11.4 14.9,-12 0.2,0 0.3,0 0.5,0 1.1,0 2.5,0.5 2.8,2.7 0.3,2.4 0.8,4.8 1.2,7.1 0.6,2.9 1.2,5.8 1.5,8.9 0.6,6.2 -2.1,9.6 -9.2,11.6 l -1.8,0.5 c -0.9,1.5 -2.2,2.9 -4.1,3.9 l -2.3,1.2 z" /><path
     inkscape:connector-curvature="0"
     id="path40"
     d="m 265.4,36.2 c 0.8,0 1.2,0.4 1.3,1.3 0.7,5.3 2.2,10.5 2.7,15.9 0.5,5.3 -1.5,8.1 -8.1,10 0.6,-2.1 0.8,-4.1 0.5,-7 -2,4.4 -2.1,9.1 -6.7,11.5 0.2,-3.3 2.6,-5.6 3.6,-8.9 -2.2,1.1 -2.2,3.7 -4.3,4.4 -1.3,-3.5 -2.6,-7 -3.8,-10.6 -0.7,-2.1 0.5,-3.9 1.1,-5.7 1.9,-6.1 7.2,-10.4 13.6,-11 -0.2,0.1 -0.1,0.1 0.1,0.1 m 0,-3 c -0.2,0 -0.4,0 -0.6,0 -7.5,0.7 -13.9,5.8 -16.1,13 -0.1,0.3 -0.3,0.7 -0.4,1.1 -0.6,1.6 -1.5,3.9 -0.6,6.5 0.9,2.5 1.8,5.1 2.7,7.5 0.4,1 0.8,2.1 1.1,3.1 l 0.8,2.1 c -0.1,0.4 -0.1,0.8 -0.1,1.3 l -0.3,5.3 4.7,-2.5 c 2,-1.1 3.4,-2.5 4.4,-4 l 1.3,-0.4 c 7.9,-2.2 11,-6.1 10.3,-13.2 -0.3,-3.1 -0.9,-6.1 -1.5,-9 -0.5,-2.4 -0.9,-4.7 -1.2,-7 -0.7,-3.5 -3.7,-3.8 -4.5,-3.8 z" /><path
     style="fill:#08a642;fill-opacity:1"
     inkscape:connector-curvature="0"
     id="path44"
     d="m 231,65.2 c -0.4,0 -0.7,-0.1 -1.1,-0.2 -0.8,-0.3 -1.1,-0.8 -1.3,-1.2 -0.3,-0.8 0,-1.6 0.2,-1.9 0,0 0,-0.1 0,-0.1 L 228,59.1 c -0.3,-0.9 -0.5,-1.8 -0.7,-2.7 -0.7,-2.6 -1.3,-4.9 -2.5,-6.9 -1,-1.5 -0.5,-3.1 -0.2,-4.3 1.6,-5.7 5,-9.7 10.3,-12 1,-0.4 1.9,-1 2.8,-1.6 0.9,-0.6 1.8,-1.1 2.8,-1.6 0.5,-0.2 1,-0.5 1.6,-0.5 0.8,0 1.8,0.5 2,1.8 0.3,1.7 1,3.4 1.7,5.1 1.2,3 2.5,6 2.1,9.7 -0.3,2.6 -0.6,5.5 -4.2,7.1 -2.1,1 -3.8,2.7 -5.6,4.6 -0.5,0.5 -1,1 -1.6,1.6 l -1.7,1.7 -0.5,-1.4 c -0.1,0.3 -0.2,0.6 -0.3,0.9 -0.1,0.4 -0.2,0.7 -0.3,1.1 -0.1,0.5 -0.2,0.9 -0.3,1.4 -0.3,1.4 -1.2,2.1 -2.4,2.1 z" /><path
     inkscape:connector-curvature="0"
     id="path46"
     d="m 242,31.2 c 0.3,0 0.5,0.2 0.5,0.6 0.9,4.9 4.4,9 3.8,14.3 -0.3,2.5 -0.5,4.6 -3.3,5.9 -3,1.4 -5.1,4 -7.6,6.4 -0.8,-2.4 1.2,-4.5 0,-7.4 -1.1,3.5 -2,6.4 -2.8,9.3 -0.2,0.8 -0.3,1.7 -0.6,2.5 -0.2,0.6 -0.6,0.8 -1.1,0.8 -0.2,0 -0.4,0 -0.5,-0.1 -0.8,-0.3 -0.2,-0.9 -0.1,-1.4 1,-4.1 3.1,-7.8 3.5,-12.2 -2.1,2.4 -2.6,5.6 -4.3,8.7 -1.1,-3.7 -1.6,-7 -3.4,-9.9 -0.6,-0.9 -0.3,-2 0,-3 1.4,-5.1 4.6,-8.9 9.4,-11 2,-0.9 3.7,-2.3 5.6,-3.2 0.4,-0.1 0.7,-0.3 0.9,-0.3 m 0,-3 c -0.9,0 -1.6,0.3 -2.2,0.6 -1.1,0.5 -2,1.1 -2.9,1.7 -0.9,0.6 -1.8,1.1 -2.6,1.5 -5.6,2.4 -9.4,6.9 -11.1,12.9 -0.4,1.3 -1,3.4 0.4,5.5 1.1,1.8 1.7,3.9 2.3,6.4 0.2,0.9 0.5,1.8 0.7,2.7 l 0.6,2.2 c -0.2,0.6 -0.5,1.6 0,2.7 0.2,0.6 0.7,1.1 1.2,1.5 l 0.1,0.4 0.1,-0.2 c 0.2,0.1 0.4,0.2 0.6,0.3 0.5,0.2 1.1,0.3 1.6,0.3 1.8,0 3.4,-1.2 3.9,-2.9 0.1,-0.2 0.1,-0.4 0.2,-0.6 l 2.5,-2.5 c 0.5,-0.5 1.1,-1.1 1.6,-1.6 1.7,-1.8 3.3,-3.4 5.2,-4.3 4.4,-2 4.8,-5.7 5.1,-8.3 0.4,-4 -1,-7.4 -2.2,-10.4 -0.7,-1.7 -1.4,-3.3 -1.7,-4.8 -0.3,-2.3 -2,-3.1 -3.4,-3.1 z" /><path
     style="fill:#08a642;fill-opacity:1"
     inkscape:connector-curvature="0"
     id="path50"
     d="m 207.4,53.1 c -1.1,-1.5 -1,-3 -1,-4.2 0,-0.3 0,-0.7 0,-1 0,-0.2 0,-0.3 0,-0.5 l -0.3,0.2 -0.8,-0.7 c -0.8,-0.7 -1.4,-1.5 -2,-2.3 -0.6,-0.8 -1.2,-1.6 -2,-2.1 -1.7,-1.2 -0.9,-2.8 -0.6,-3.4 l 0.1,-0.2 c 2.1,-4.4 5.2,-9.8 11.2,-13.2 0.3,-0.2 0.7,-0.6 1,-1.1 0.7,-0.9 1.7,-2.2 3.3,-2.2 0.4,0 0.7,0.1 1.1,0.2 2,0.7 2.7,2.8 3.3,4.5 0.1,0.3 0.2,0.6 0.3,0.9 1.8,4.7 1.3,9.3 0.5,14.5 -0.2,1.4 -1.2,2.5 -2.9,3.4 -1.5,0.8 -2.9,1.9 -4.4,3.1 -0.6,0.5 -1.3,1.1 -2,1.6 l -1.9,1.5 v 0 c -0.2,0.3 -0.3,0.7 -0.5,1 l -1.2,1.9 z" /><path
     inkscape:connector-curvature="0"
     id="path52"
     d="m 216.4,23.9 c 0.2,0 0.4,0 0.6,0.1 1.6,0.5 2,2.8 2.7,4.5 1.7,4.5 1.1,9.1 0.4,13.7 -0.2,1.1 -1.2,1.8 -2.1,2.2 -2.4,1.2 -4.3,3 -6.6,4.9 -0.5,-2.6 1.3,-4.7 0.3,-7.1 -2.1,2.9 -1.2,6.8 -3.1,10 -1.1,-1.5 -0.6,-3 -0.7,-4.4 -0.1,-1.5 1.2,-2.9 0.5,-4.5 -1.5,0 -1.1,1.8 -2.1,2.5 -1.5,-1.3 -2.4,-3.3 -4.1,-4.5 -0.7,-0.5 -0.3,-1 0,-1.7 2.4,-5.1 5.5,-9.7 10.6,-12.6 1.3,-0.8 2,-3.1 3.6,-3.1 m 0,-3 v 0 c -2.4,0 -3.7,1.8 -4.5,2.8 -0.2,0.2 -0.5,0.6 -0.6,0.7 -6.3,3.6 -9.6,9.3 -11.8,13.9 l -0.1,0.2 c -1.5,3 0.2,4.7 1.1,5.3 0.6,0.4 1.1,1 1.6,1.8 0.6,0.8 1.3,1.7 2.2,2.5 l 0.6,0.5 c 0,0.1 0,0.2 0,0.3 0,1.3 -0.1,3.2 1.3,5.1 l 2.6,3.6 2.4,-3.8 c 0.2,-0.3 0.3,-0.5 0.5,-0.8 l 1.6,-1.3 c 0.7,-0.6 1.4,-1.1 2,-1.6 1.5,-1.2 2.7,-2.2 4.1,-2.9 2.2,-1.1 3.4,-2.6 3.7,-4.5 0.8,-5.4 1.4,-10.2 -0.6,-15.3 -0.1,-0.3 -0.2,-0.6 -0.3,-0.9 -0.6,-1.8 -1.6,-4.5 -4.2,-5.4 -0.6,-0.1 -1.1,-0.2 -1.6,-0.2 z" /><path
     style="fill:#08a642;fill-opacity:1"
     inkscape:connector-curvature="0"
     id="path58"
     d="m 210.9,79.3 c -0.1,-0.9 -0.2,-1.9 -0.3,-2.9 l -0.1,0.3 -1.9,-2.5 c -2.1,-2.7 -4,-5.3 -3.5,-9.9 0.9,-8.7 5.1,-15.1 13.3,-20.2 0.7,-0.5 1.6,-0.9 2.6,-0.9 2,0 2.9,1.9 3.2,2.5 2.3,4.5 3.8,8.7 4.5,12.9 0.9,5.6 -1.4,10.5 -6.9,14.5 l -0.4,0.3 c -1.1,0.8 -2.3,1.6 -3.3,2.5 -0.1,0.1 -0.1,0.1 -0.2,0.2 -0.4,0.3 -0.9,0.9 -1.9,0.9 -0.3,0 -0.6,-0.1 -0.9,-0.2 0,0 0,0 -0.1,0 -0.2,1 -0.6,2.1 -1.4,3.2 l -2.2,2.9 z" /><path
     inkscape:connector-curvature="0"
     id="path60"
     d="m 221,44.8 c 0.7,0 1.3,0.5 1.9,1.7 2.1,4 3.6,8.2 4.3,12.5 0.9,5.6 -2,9.9 -6.3,13.1 -1.3,0.9 -2.6,1.9 -3.8,2.8 -0.4,0.3 -0.7,0.7 -1.1,0.7 -0.1,0 -0.2,0 -0.3,-0.1 -0.7,-0.3 -0.8,-1 -0.8,-1.7 0,-1.6 0,-3.1 0,-4.7 -2.2,2.8 0.1,6.6 -2.5,10 -0.6,-5 -0.6,-9.2 0.9,-13.4 -2.2,2.2 -2.2,5.1 -3.3,7.9 -2.1,-2.8 -3.9,-5 -3.5,-9.2 0.9,-8.8 5.5,-14.6 12.6,-19 0.8,-0.4 1.4,-0.6 1.9,-0.6 m 0,-3 c -1.4,0 -2.5,0.6 -3.4,1.1 -8.5,5.2 -13.1,12.2 -14.1,21.3 -0.5,5.2 1.7,8.1 3.8,10.9 l 0.2,0.3 1.6,2.1 c 0.1,0.6 0.1,1.3 0.2,1.9 l 0.9,7.3 4.5,-5.9 c 0.6,-0.8 1,-1.6 1.3,-2.3 1.5,0 2.4,-0.9 2.8,-1.3 0,0 0.1,-0.1 0.1,-0.1 1,-0.8 2.2,-1.7 3.3,-2.5 l 0.4,-0.3 c 7.5,-5.5 8.2,-11.7 7.5,-16 -0.7,-4.4 -2.2,-8.8 -4.6,-13.4 -1.1,-2 -2.6,-3.1 -4.5,-3.1 z" /><path
     style="fill:#08a642;fill-opacity:1"
     inkscape:connector-curvature="0"
     id="path64"
     d="m 236.8,86.2 c 0.2,-0.8 0.4,-1.6 0.7,-2.4 l -0.7,-2 c -1.5,-4.3 -3.3,-7.9 -5.2,-11.6 -1.8,-3.5 0.6,-6.9 2,-9 3.3,-4.9 8.4,-8.1 12.4,-10.3 0.3,-0.2 0.9,-0.4 1.5,-0.4 0.4,0 1.7,0.1 2.2,2 0.5,2 1.4,3.9 2.3,5.9 0.7,1.5 1.4,3.1 2,4.7 2.1,6.3 1,12.5 -3.2,18.6 -1.4,1.9 -3.6,2.4 -5.4,2.8 -0.4,0.1 -0.8,0.2 -1.1,0.2 -0.2,0.1 -0.4,0.1 -0.6,0.1 -0.6,0 -1.2,-0.3 -1.6,-0.7 -0.7,1.1 -1.5,2.3 -2.5,3.3 l -3.5,3.9 z" /><path
     inkscape:connector-curvature="0"
     id="path66"
     d="m 247.4,52.2 c 0.3,0 0.6,0.2 0.7,0.8 0.9,3.8 3.1,7.1 4.3,10.7 2.1,6.3 0.7,12 -3,17.3 -1.3,1.8 -3.7,1.9 -5.7,2.4 -0.1,0 -0.2,0 -0.3,0 -0.8,0 -0.4,-1.5 -0.1,-2.2 0.7,-1.7 1.8,-3.3 0.8,-5.4 -1.4,3.9 -3,7.6 -5.8,10.7 0.7,-3.7 3.4,-6.7 3.1,-10.8 -1.8,1.4 -1.7,3.8 -3.1,5.7 -1.5,-4.3 -3.4,-8 -5.3,-11.7 -1.3,-2.6 0.5,-5.4 1.9,-7.4 2.9,-4.3 7.3,-7.3 11.8,-9.8 0.2,-0.2 0.5,-0.3 0.7,-0.3 m 0,-3 c -0.7,0 -1.4,0.2 -2.2,0.6 -4.2,2.3 -9.4,5.5 -12.9,10.7 -1.5,2.2 -4.2,6.2 -2,10.5 1.8,3.6 3.6,7.2 5.1,11.4 l 0.5,1.5 c -0.2,0.7 -0.4,1.4 -0.6,2.1 l -1.9,10.4 7.1,-7.9 c 0.7,-0.7 1.3,-1.5 1.8,-2.3 0.4,0.1 0.7,0.2 1.1,0.2 0.3,0 0.7,0 1,-0.1 0.3,-0.1 0.7,-0.2 1.1,-0.2 1.9,-0.4 4.6,-1 6.3,-3.4 4.5,-6.5 5.7,-13.2 3.4,-19.9 -0.6,-1.7 -1.3,-3.3 -2,-4.8 -0.9,-1.9 -1.7,-3.7 -2.2,-5.6 -0.6,-2.4 -2.2,-3.2 -3.6,-3.2 z" /><path
     style="fill:#08a642;fill-opacity:1"
     inkscape:connector-curvature="0"
     id="path70"
     d="m 193.2,68.4 c -0.5,-0.5 -0.7,-1.1 -0.7,-3.4 -0.1,0 -0.2,0 -0.4,0 -0.9,0 -1.5,-0.6 -1.8,-0.9 -0.1,-0.1 -0.1,-0.1 -0.2,-0.2 -3.7,-3.1 -2.5,-7 -1.6,-9.9 1.2,-3.9 3.1,-7.7 5.7,-11.8 0.1,-0.1 0.2,-0.6 0.2,-0.9 0.2,-0.9 0.5,-3.1 2.8,-3.1 0.1,0 0.2,0 0.3,0 1.2,0.1 2,1.1 2.7,1.9 0.3,0.4 0.6,0.7 0.9,0.9 4.1,3.1 6.4,7.4 6.6,12.5 0.1,3.1 -0.7,6 -1.6,8.9 -0.3,1.2 -0.7,2.2 -0.9,3.3 -0.1,0.4 -0.5,1.4 -2.1,1.4 -1.2,0 -3.2,-0.5 -4.3,-1 -1,-0.4 -1.8,-0.9 -2.5,-1.5 0,1.2 -0.2,2.3 -0.6,3.1 -0.5,0.8 -1.1,0.9 -1.5,0.9 h -0.6 z" /><path
     inkscape:connector-curvature="0"
     id="path72"
     d="m 197.4,39.8 c 0.1,0 0.1,0 0.2,0 1,0.1 1.8,1.8 2.8,2.6 3.8,2.9 5.8,6.8 6,11.4 0.2,4 -1.6,7.9 -2.5,11.8 0,0.2 -0.3,0.2 -0.7,0.2 -1,0 -2.7,-0.4 -3.7,-0.8 -1.9,-0.8 -3.5,-2 -3.1,-4.6 0.1,-0.8 0.3,-1.9 -0.5,-2.9 -1.7,1.7 -0.3,8 -1.3,9.8 -0.1,0.1 -0.1,0.2 -0.2,0.2 -0.6,0 -0.1,-8.1 -0.3,-9.9 -1.7,1.4 -0.7,3.1 -1.1,4.6 -0.1,0.5 -0.1,1.3 -0.5,1.5 -0.1,0.1 -0.2,0.1 -0.3,0.1 -0.4,0 -0.7,-0.5 -1,-0.8 -3,-2.5 -2,-5.6 -1.1,-8.4 1.3,-4 3.3,-7.9 5.6,-11.4 0.6,-1.2 0.1,-3.4 1.7,-3.4 m 0,-3 c -1.6,0 -3.7,0.8 -4.3,4.3 0,0.1 -0.1,0.3 -0.1,0.4 -2.7,4.2 -4.6,8.1 -5.8,12 -0.9,2.9 -2.5,7.8 2,11.5 0,0 0.1,0.1 0.1,0.1 0.3,0.3 0.9,0.9 1.8,1.2 0.1,1.6 0.4,2.4 1.1,3 0.6,0.6 1.4,0.9 2.2,0.9 1.2,0 2.2,-0.6 2.8,-1.7 0.2,-0.4 0.4,-0.8 0.5,-1.2 0.2,0.1 0.5,0.2 0.7,0.3 1.3,0.5 3.4,1.1 4.9,1.1 2.9,0 3.5,-2.1 3.6,-2.5 0.3,-1.1 0.6,-2.1 0.9,-3.3 0.9,-3 1.8,-6 1.7,-9.4 -0.2,-5.6 -2.7,-10.3 -7.2,-13.7 -0.1,-0.1 -0.4,-0.5 -0.6,-0.7 -0.7,-0.9 -1.9,-2.3 -3.7,-2.5 -0.3,0.2 -0.4,0.2 -0.6,0.2 z" /><path
     style="fill:#08a642;fill-opacity:1"
     inkscape:connector-curvature="0"
     id="path76"
     d="m 260.3,85.8 c 0.2,-1.5 1.1,-2.7 1.8,-3.7 0.5,-0.7 0.9,-1.3 1.1,-1.8 -1.7,1.8 -4,2.1 -6,2.1 -0.6,0 -1.1,0 -1.7,0 -0.5,0 -1,0 -1.6,0 h -0.4 c -0.6,0 -1.9,0 -2.5,-1.1 -0.7,-1.1 0,-2.4 0.3,-2.9 0.7,-1.3 1.2,-2.6 1.8,-4 0.4,-0.9 0.7,-1.9 1.2,-2.9 2.4,-5.3 7.4,-7.4 11.4,-9.1 l 0.7,-0.3 c 2,-0.8 4,-1.7 6.4,-1.7 0.6,0 1.8,0 2.5,1 0.3,0.5 0.5,1.2 0,2.3 -1.1,2.4 -1.4,4.9 -1.7,7.7 -0.3,2.7 -0.7,5.6 -1.9,8.3 l -0.2,0.4 c -1.1,2.6 -2.6,5.8 -7,5.8 -0.1,0 -0.4,0.3 -0.7,0.6 -0.3,0.3 -0.7,0.6 -1.2,0.8 l -2.8,1.7 z" /><path
     inkscape:connector-curvature="0"
     id="path78"
     d="m 272.8,61.8 c 0,0 0,0 0,0 0.9,0 1.6,0.2 1.1,1.2 -2.4,5.1 -1.3,10.9 -3.6,16 -1.2,2.6 -2.2,5.3 -5.8,5.3 -0.8,0 -1.5,0.9 -2.7,1.6 0.5,-3.2 5.2,-4.9 1.7,-8.8 -1.4,3.2 -3.8,3.7 -6.3,3.7 -1.1,0 -2.2,-0.1 -3.2,-0.1 -0.1,0 -0.2,0 -0.2,0 0,0 -0.1,0 -0.1,0 -1.4,0 -1.7,-0.3 -0.9,-1.8 1.2,-2.2 1.9,-4.7 3,-7 2.1,-4.6 6.4,-6.5 10.7,-8.3 1.9,-0.7 3.9,-1.8 6.3,-1.8 m 0,-3 c -2.7,0 -5,1 -7,1.8 l -0.7,0.3 c -4.3,1.8 -9.6,4 -12.2,9.9 -0.4,1 -0.8,2 -1.2,2.9 -0.5,1.4 -1,2.7 -1.7,3.9 -0.4,0.7 -1.4,2.6 -0.3,4.4 1.1,1.8 3.1,1.8 3.8,1.8 h 0.2 0.2 c 0.5,0 1,0 1.5,0 0.6,0 1.2,0 1.7,0 0.5,0 1.3,0 2.2,-0.1 -0.2,0.5 -0.4,1.1 -0.5,1.8 l -1,6.5 5.6,-3.5 c 0.5,-0.3 0.9,-0.7 1.3,-0.9 0.1,-0.1 0.2,-0.2 0.3,-0.3 5,-0.3 6.7,-4.1 7.8,-6.7 l 0.2,-0.4 c 1.3,-2.9 1.7,-5.9 2,-8.7 0.3,-2.6 0.6,-5.1 1.6,-7.2 0.9,-1.8 0.3,-3.1 -0.1,-3.8 -1.1,-1.6 -3,-1.7 -3.7,-1.7 z" /><path
     style="fill:#08a642;fill-opacity:1"
     inkscape:connector-curvature="0"
     id="path84"
     d="m 247.3,108 c -0.8,0 -1.5,-0.1 -2.2,-0.4 l -2.7,-1 2.4,-1.6 c 1.2,-0.8 2.4,-1.4 3.6,-2 1.5,-0.7 2.9,-1.4 3.9,-2.5 1.7,-1.8 2.9,-3.9 4.2,-6.2 1.2,-2 2.4,-4.1 3.9,-6 2.2,-2.6 5.1,-4.1 8.1,-4.1 0.8,0 1.6,0.1 2.3,0.3 2.3,0.5 2.6,2.1 2.9,3.2 0.1,0.5 0.1,1.1 -0.6,1.6 l -0.5,0.5 -0.7,-0.1 c -0.1,0 -0.2,0 -0.4,0 -0.4,0 -0.7,0.2 -1.3,1.4 -0.2,0.3 -0.4,0.7 -0.6,1 l -0.3,0.5 c -2.5,3.8 -5.2,7.8 -8.9,10.8 -0.1,0.1 -0.2,0.2 -0.3,0.3 -0.6,0.7 -1.5,1.8 -2.8,1.8 -0.6,0 -1.4,-0.2 -2.2,-1.2 -2.2,1.9 -5,3.7 -7.8,3.7 z" /><path
     inkscape:connector-curvature="0"
     id="path86"
     d="m 268.5,85.8 c 0.7,0 1.3,0.1 2,0.2 1.4,0.3 1.5,1.1 1.8,2.1 0,0 -0.1,0.1 -0.1,0.1 -0.2,0 -0.4,-0.1 -0.6,-0.1 -1.9,0 -2.3,1.8 -3.1,3.1 -2.6,4 -5.2,7.9 -8.9,10.9 -0.5,0.4 -1.2,1.9 -2.1,1.9 -0.3,0 -0.6,-0.2 -0.9,-0.6 -0.4,-0.6 3.2,-4.6 2.1,-4.6 0,0 0,0 0,0 -0.3,0 -5.9,7.7 -11.1,7.7 -0.6,0 -1.1,-0.1 -1.7,-0.3 2.8,-1.9 5.7,-2.5 7.7,-4.7 3.4,-3.7 5,-8.4 8.2,-12.2 1.6,-2.2 4.1,-3.5 6.7,-3.5 m 0,-3 v 0 c -3.5,0 -6.8,1.6 -9.3,4.6 -1.7,2 -2.9,4.1 -4.1,6.2 -1.2,2.2 -2.4,4.2 -4,5.9 -0.8,0.9 -2,1.4 -3.4,2.1 -1.1,0.6 -2.4,1.2 -3.8,2.1 l -4.8,3.3 5.4,2 c 0.9,0.3 1.8,0.5 2.7,0.5 2.8,0 5.5,-1.5 7.8,-3.2 0.9,0.6 1.7,0.7 2.2,0.7 2.1,0 3.3,-1.6 4,-2.4 0.1,-0.1 0.1,-0.1 0.2,-0.2 3.9,-3.2 6.6,-7.2 9.1,-11.1 l 0.3,-0.5 c 0.3,-0.4 0.5,-0.8 0.6,-1.1 0.1,-0.2 0.2,-0.4 0.3,-0.5 l 1.1,0.2 1.1,-0.9 c 1.2,-1 1.2,-2.2 1.1,-2.8 v -0.1 -0.1 c -0.3,-1.2 -0.8,-3.6 -4,-4.3 -0.7,-0.3 -1.6,-0.4 -2.5,-0.4 z" /><path
     style="fill:#08a642;fill-opacity:1"
     inkscape:connector-curvature="0"
     id="path90"
     d="m 234.1,106.4 c -2.8,0 -5.5,-0.9 -8.2,-2.8 l -1.9,-1.3 2,-1.2 c 2,-1.2 4.1,-2.8 6.6,-5.1 1.3,-1.2 2.3,-2.7 3.4,-4.3 1,-1.5 2.1,-3 3.4,-4.4 4.2,-4.2 9.3,-6.3 15.5,-6.3 0.8,0 1.5,0 2.3,0.1 1.7,0.1 2.6,1.1 2.7,2.8 0.6,9.2 -6.7,19.5 -15.6,22 l -0.2,0.1 c -0.5,0.1 -1,0.3 -1.7,0.3 -0.6,0 -1.2,-0.1 -1.7,-0.4 l -1.4,-0.6 c -1.7,0.7 -3.4,1.1 -5.2,1.1 z" /><path
     inkscape:connector-curvature="0"
     id="path92"
     d="m 254.9,82.6 c 0.7,0 1.5,0 2.2,0.1 1,0.1 1.3,0.4 1.3,1.4 0.6,8.6 -6.2,18.1 -14.5,20.5 -0.5,0.1 -1,0.3 -1.6,0.3 -0.3,0 -0.7,-0.1 -1.2,-0.2 2.7,-2 5.5,-3.6 7.5,-6.3 -4.8,2.8 -9.4,6.6 -14.7,6.6 -2.3,0 -4.7,-0.7 -7.4,-2.6 2.4,-1.4 4.6,-3.3 6.8,-5.3 2.8,-2.5 4.3,-6 6.9,-8.6 4.4,-4.2 9.2,-5.9 14.7,-5.9 m 0,-3 v 0 c -6.5,0 -12,2.3 -16.5,6.7 -1.5,1.4 -2.6,3 -3.6,4.6 -1,1.5 -2,2.9 -3.2,4 -2.4,2.2 -4.4,3.8 -6.3,4.9 l -4,2.4 3.8,2.7 c 3,2.1 6,3.1 9.1,3.1 1.8,0 3.5,-0.3 5.1,-0.9 l 0.9,0.4 c 0.8,0.3 1.5,0.5 2.3,0.5 0.9,0 1.6,-0.2 2.2,-0.4 l 0.2,-0.1 c 9.7,-2.7 17.3,-13.5 16.6,-23.5 -0.2,-2.5 -1.6,-4 -4.1,-4.2 -0.9,-0.2 -1.7,-0.2 -2.5,-0.2 z" /><path
     style="fill:#08a642;fill-opacity:1"
     inkscape:connector-curvature="0"
     id="path96"
     d="m 194.9,92.7 c -2.3,0 -3.9,-2.5 -4.7,-4.7 l -1.5,-1.3 c -4,-3.4 -4.2,-8.5 -3.9,-12.5 0.2,-2.6 0,-5.1 -0.3,-7.7 -0.1,-1.3 -0.2,-2.6 -0.3,-4 l -0.1,-1.7 1.7,0.2 c 3.2,0.3 6.1,2 8,4.6 1.9,2.7 2.6,6.1 1.7,9.3 -0.6,2.2 0.3,7.6 0.9,11.1 0.6,3.5 0.7,4.7 0.5,5.5 l -0.2,0.7 -0.7,0.2 c -0.4,0.2 -0.7,0.3 -1.1,0.3 z" /><path
     inkscape:connector-curvature="0"
     id="path98"
     d="m 185.8,62.4 c 5.8,0.5 9.8,6.4 8.4,12.1 -1.1,4.1 1.8,15.3 1.4,16.6 -0.2,0.1 -0.4,0.1 -0.6,0.1 -2,0 -3.5,-3.7 -3.8,-5.7 -0.1,-0.7 -0.3,-2.5 -1.3,-2.5 0,0 0,0 0,0 -0.1,0 -0.2,2.5 -0.2,2.5 -3.5,-2.9 -3.6,-7.4 -3.3,-11.2 0.2,-4.1 -0.4,-7.9 -0.6,-11.9 m -3.2,-3.3 0.2,3.4 c 0.1,1.4 0.2,2.7 0.3,4 0.2,2.6 0.4,5 0.3,7.4 -0.3,4 -0.2,9.8 4.4,13.7 l 1.2,1.1 c 1,2.5 2.8,5.3 5.9,5.3 0.5,0 1.1,-0.1 1.6,-0.3 l 1.4,-0.5 0.5,-1.4 c 0.4,-1.1 0.2,-2.4 -0.4,-6.2 -0.5,-3.2 -1.4,-8.6 -0.9,-10.5 0.9,-3.6 0.2,-7.5 -1.9,-10.5 -2.1,-3 -5.4,-4.9 -9,-5.3 z" /><path
     style="fill:#08a642;fill-opacity:1"
     inkscape:connector-curvature="0"
     id="path102"
     d="m 213.4,99.5 c -5,0 -7.9,-2.3 -9.9,-5.2 -0.1,0.2 -0.2,0.3 -0.4,0.5 l -0.4,0.3 h -0.6 c -1.6,0 -5.4,-3.3 -6.5,-5.7 -1.7,-3.7 -3.2,-8.1 -1.7,-13.2 0.8,-2.6 1.5,-5.3 1.4,-8.2 0,-0.4 0,-1.4 0.7,-2.2 0.3,-0.3 0.9,-0.7 1.7,-0.7 0.3,0 0.6,0 1,0.1 5.2,1.4 8.9,4.4 11.3,9.2 1.6,3.2 2,6.5 2.3,9.7 0.1,0.7 0.1,1.4 0.2,2 l 0.2,1.3 c 0.4,3.4 0.8,6.7 2.9,9.7 l 1.5,2.2 -2.7,0.2 c -0.2,0 -0.6,0 -1,0 0,0 0,0 0,0 z" /><path
     inkscape:connector-curvature="0"
     id="path104"
     d="m 197.8,66.6 c 0.2,0 0.4,0 0.6,0.1 4.7,1.3 8.1,4 10.3,8.4 1.8,3.6 1.9,7.4 2.4,11.2 0.5,3.9 0.7,7.9 3.4,11.6 -0.3,0 -0.7,0 -1,0 -8,0 -9.7,-6.4 -12.5,-11.9 -0.9,1.4 -0.1,2.4 0.2,3.4 0.2,1.1 1.4,3.8 1.1,4.1 0,0 -0.1,0 -0.1,0 -0.7,0 -4.1,-2.7 -5.1,-4.9 -1.8,-3.8 -2.9,-7.8 -1.6,-12.1 0.8,-2.8 1.6,-5.6 1.5,-8.6 -0.2,-0.6 -0.1,-1.3 0.8,-1.3 m 0,-3 c -1.1,0 -2.1,0.4 -2.8,1.2 -0.8,0.8 -1.2,1.9 -1.1,3.3 0.1,2.6 -0.6,5.2 -1.4,7.7 -1.7,5.5 0.1,10.5 1.8,14.2 1.1,2.5 5.3,6.6 7.8,6.6 0.4,0 0.8,-0.1 1.2,-0.2 2.2,2.6 5.3,4.6 10.2,4.6 0.4,0 0.8,0 1.2,0 l 5.4,-0.3 -3.1,-4.4 c -1.9,-2.7 -2.3,-5.6 -2.7,-9 -0.1,-0.4 -0.1,-0.8 -0.2,-1.3 -0.1,-0.7 -0.2,-1.3 -0.2,-2 -0.4,-3.3 -0.7,-6.7 -2.5,-10.2 -2.6,-5.2 -6.6,-8.5 -12.2,-10 -0.5,-0.1 -1,-0.2 -1.4,-0.2 z" /><path
     style="fill:#08a642;fill-opacity:1"
     inkscape:connector-curvature="0"
     id="path108"
     d="m 226,101.6 c -0.7,0 -1.4,-0.2 -2,-0.6 -0.8,-0.5 -1.3,-1.1 -1.5,-1.8 -0.2,0.1 -0.5,0.2 -0.8,0.2 -0.5,0 -1.8,-0.2 -2.2,-1.3 -0.1,-0.2 -0.1,-0.4 -0.1,-0.6 -0.7,0.9 -1.3,1.2 -1.9,1.3 -0.1,0 -0.2,0 -0.4,0 -2.2,0 -3,-2.1 -3.5,-3.3 -0.1,-0.4 -0.3,-0.8 -0.4,-1 -3,-5.1 -1.8,-14.6 2.2,-18 2.8,-2.3 5.6,-4.7 8.5,-7 0.3,-0.3 0.7,-0.7 1.1,-1.1 0.9,-1 2.1,-2.3 3.8,-2.3 0.1,0 0.2,0 0.3,0 1.9,0.2 2.6,2 3.1,3.2 0.2,0.5 0.4,1.1 0.6,1.4 4.4,6 6,12.5 4.9,19.2 -0.8,4.9 -4.4,7.7 -7.1,9.4 -0.3,0.2 -0.6,0.4 -0.9,0.7 -1,0.6 -2.2,1.6 -3.7,1.6 z" /><path
     inkscape:connector-curvature="0"
     id="path110"
     d="m 228.7,67.4 c 0,0 0.1,0 0.1,0 1.5,0.1 1.6,2.6 2.6,4 3.9,5.4 5.8,11.4 4.7,18.1 -0.6,3.9 -3.3,6.4 -6.4,8.4 -1.2,0.7 -2.4,2.2 -3.8,2.2 -0.4,0 -0.8,-0.1 -1.2,-0.4 -1.9,-1.2 -0.8,-3.5 -0.6,-5.3 0.2,-2.4 1,-4.7 1.6,-7.1 0,0 0,0 0,0 -0.5,0 -1.1,1.3 -1.7,2.9 -0.1,0.9 -1.5,6.8 -2.2,7.6 0,0 -0.1,0 -0.1,0 -0.2,0 -0.7,-0.2 -0.8,-0.3 -0.4,-1 4,-13.1 3.5,-14.9 -1.2,3.2 -5.3,14.4 -7.1,14.6 -0.1,0 -0.1,0 -0.2,0 -1.6,0 -1.9,-2.3 -2.6,-3.5 -2.7,-4.6 -1.5,-13.2 1.9,-16.1 2.8,-2.4 5.6,-4.7 8.5,-7 1.2,-1.1 2.3,-3.2 3.8,-3.2 m 0,-3 c -2.4,0 -3.9,1.7 -4.9,2.8 -0.3,0.4 -0.7,0.7 -0.9,0.9 -2.9,2.3 -5.8,4.7 -8.5,7.1 -4.6,3.9 -5.9,14.2 -2.6,19.9 0.1,0.1 0.2,0.5 0.3,0.8 0.5,1.3 1.6,4.2 4.9,4.2 0.2,0 0.3,0 0.5,0 0.5,-0.1 0.9,-0.2 1.4,-0.4 0.9,0.8 2.1,1 2.7,1 0,0 0,0 0,0 0.4,0.5 0.9,1 1.5,1.4 0.9,0.6 1.8,0.8 2.8,0.8 2,0 3.5,-1.2 4.6,-2.1 0.3,-0.2 0.6,-0.5 0.8,-0.6 2.9,-1.8 6.8,-4.9 7.7,-10.4 1.2,-7.1 -0.6,-14 -5.2,-20.4 -0.1,-0.2 -0.3,-0.7 -0.4,-1 -0.5,-1.3 -1.5,-4 -4.4,-4.2 0,0.2 -0.1,0.2 -0.3,0.2 z" /><path
     d="m 171.8,162.6 c -1.4,0 -2,-1.2 -2.5,-2.1 -2.6,-5.2 -1.1,-10 0.3,-14.6 0,0 0.3,-1 0.4,-1.1 0,0 -0.1,0 -0.1,0 -1.3,-0.2 -1.9,-0.8 -2.2,-1.3 -0.7,-1.2 -0.1,-2.5 0.3,-3.3 l 0.1,-0.1 c 0.3,-0.8 1.1,-2.3 2.5,-3.3 0.2,-0.2 0.4,-0.3 0.4,-0.4 -0.1,-0.1 -0.2,-0.3 -0.5,-0.5 -1.2,-1.1 -1.3,-2.1 -1.2,-2.7 0.1,-0.7 0.6,-1.6 2.1,-2.1 0.2,-0.1 0.5,-0.2 0.7,-0.3 0.8,-0.3 1.6,-0.6 2.5,-0.8 0.1,0 0.3,0 0.4,-0.1 0,0 0,0 0,0 -0.6,-0.8 -0.7,-1.7 -0.5,-2.4 0.4,-1.2 1.8,-1.6 2.4,-1.8 1.4,-0.4 2.8,-0.6 4.4,-0.6 1.1,0 2.3,0.1 3.6,0.3 l 0.7,0.1 c 0.9,0.2 1.8,0.3 2.6,0.3 1.1,0 1.9,-0.3 2.7,-1 0.6,-0.6 0.8,-1 0.5,-2.1 0,-0.2 -0.1,-0.7 -1.4,-0.8 -0.4,0 -0.9,-0.1 -1.3,-0.1 -1.6,0 -3.2,0.3 -4.9,0.8 -0.7,0.2 -1.5,0.4 -2.1,0.4 -2.8,0 -4.3,-2 -5.3,-3.5 -0.5,-0.8 -1,-1.7 -1.4,-2.6 -1.2,-2.2 -2.3,-4.4 -4.4,-5.6 -1.1,-0.7 -1.2,-1.6 -1.2,-2 0.1,-1.1 0.9,-1.8 1.7,-2.1 0.4,-0.2 0.8,-0.4 1.2,-0.5 1.8,-0.8 3.7,-1.6 5.9,-1.6 0.6,0 1.1,0.1 1.6,0.2 0.3,0.1 0.5,0.1 0.7,0.1 0,0 0,0 0.1,0 0,-0.1 0,-0.2 0,-0.3 0.1,-1.8 1.3,-2.5 2.3,-2.5 0.4,0 0.8,0.1 1.2,0.2 0.1,0 0.3,0.1 0.4,0.1 0.5,0.1 1,0.2 1.5,0.3 0.7,0.2 1.4,0.3 2.1,0.3 0.7,0 1.5,-0.1 2.5,-1.1 0.6,-0.6 1.5,-0.9 2.5,-0.9 2.2,0 4.7,1.7 6.1,3.3 0,0.1 0.1,0.1 0.1,0.1 0.9,-1.5 2.1,-1.9 3,-1.9 0.9,0 1.8,0.4 2.5,0.7 0.2,0.1 0.3,0.2 0.5,0.2 1.3,0.6 2.3,1.4 3.3,2.2 l 0.5,0.4 c 3.2,2.5 3.7,5.4 1.8,9 -0.5,1 -0.6,1.4 -0.6,1.6 0.1,0.1 0.6,0.2 1.6,0.2 2.7,0 5,0.3 7.2,0.9 h 0.1 c 0,-0.1 0,-0.1 -0.1,-0.1 -2.8,-5.6 -3.3,-11.5 -3.4,-16.1 0,-1.3 0.3,-2.2 0.9,-2.9 0.5,-0.5 1.2,-0.8 2,-0.8 0.6,0 1.2,0.2 1.9,0.5 2,0.9 4.7,2.5 5.1,6.4 1.3,10.6 6.2,19.2 14.5,25.5 -0.1,-0.4 -0.3,-0.9 -0.4,-1.3 -1,-2.9 -1.9,-5.9 -1.7,-9.3 0.4,-5.4 4.7,-9.5 10.1,-9.5 1,0 2,0.1 2.9,0.4 7,1.9 10.8,6.9 13.4,11 1.7,2.7 3.9,4.1 6.5,4.1 1.2,0 2.4,-0.3 3.7,-0.8 3.1,-1.3 5.6,-5.1 4.1,-9.8 0,-0.1 -0.2,-0.4 -0.3,-0.6 -0.4,-0.8 -1,-1.9 -0.7,-2.9 0.2,-0.9 1.1,-1.3 1.8,-1.3 h 0.2 l 0.3,0.1 c 1.6,0.4 3.6,5.2 3.8,8.8 0.2,3.6 -1.2,8.5 -8.3,11.1 -1.5,0.5 -2.9,0.8 -4.4,0.8 -5.3,0 -9.8,-3.6 -12,-6.8 -1.7,-2.4 -3.8,-4.3 -6.7,-6.2 -0.7,-0.4 -1.5,-0.6 -2.4,-0.6 -1.6,0 -3.1,0.6 -4.3,1.7 -1.2,1.1 -1.4,3.4 -0.6,5.8 2.9,8.5 9.1,13.4 20.6,16.4 6.3,1.7 11.5,2.6 16.9,3.2 l 3.2,0.3 -2.4,2.3 c -0.8,0.7 -1.5,1.4 -2.3,2.1 -1.7,1.5 -3.3,3 -4.5,4.7 -0.3,0.5 -1,1.1 -2.3,1.1 v 0 c -0.2,0 -0.4,0 -0.7,0 -4.1,-0.4 -7.9,-1.3 -11.4,-2.5 -0.8,-0.3 -1.7,-0.6 -2.5,-0.9 -3.9,-1.4 -8,-2.9 -11.8,-5 -3.7,-2.1 -7,-4.6 -10.2,-7.1 -1.4,-1.1 -2.8,-2.1 -4.2,-3.2 -1.7,-1.2 -3.4,-2.6 -5,-3.9 -1.3,-1.1 -2.7,-2.2 -4.1,-3.3 -2,-1.5 -4.4,-2.2 -7.4,-2.2 -0.8,0 -1.5,0 -2.4,0.1 -0.4,0 -1,0.1 -1.2,1.6 -0.1,0.8 0,1.6 2,2.2 1.5,0.4 3,0.8 4.5,1.1 1,0.2 1.9,0.4 2.9,0.7 2.7,0.6 4.5,4.8 4.7,7.5 0.2,2.5 -1.2,3.3 -1.8,3.6 -1.4,0.5 -1.5,1.3 -1.8,2.7 -0.1,0.5 -0.2,1.1 -0.4,1.7 -0.5,1.3 -1.2,2 -2.2,2 -0.7,0 -1.2,-0.3 -1.7,-0.7 -0.3,1.7 -1.3,2.9 -2.1,3.9 -0.3,0.3 -0.8,1 -1.8,1 -0.5,0 -1.2,-0.2 -1.8,-1.2 -0.1,0.1 -0.1,0.2 -0.2,0.3 -1.9,2.7 -3.3,4.6 -5.3,4.6 -2,0 -3.4,-1.9 -5.4,-4.8 -1.7,-2.6 -1.9,-5.3 -0.5,-8.2 0.9,-1.8 1,-3.8 0.9,-6.2 0,-0.5 -0.2,-1 -1.2,-1.4 -0.1,0 -0.1,0 -0.1,0 -0.3,0 -0.8,0.5 -1,0.8 -1.4,1.5 -1.5,3.3 -1.2,6 0.4,3 0.4,6.3 -2,9.3 l -1.4,1.7 -1.5,-2.5 c -0.2,0.3 -0.3,0.6 -0.5,0.8 -0.6,1.1 -1.3,2.4 -2.6,3.3 -0.1,0.1 -0.2,0.1 -0.3,0.2 -0.5,0.4 -1.1,0.9 -1.9,0.9 -0.6,0 -1.5,-0.3 -2.2,-1.6 -0.1,0.1 -0.2,0.1 -0.3,0.2 -0.3,0.3 -0.6,0.6 -1,0.9 -0.6,0.5 -1.2,1.1 -2,1.6 0,0 -0.1,0.1 -0.2,0.1 -0.4,0.4 -1.1,0.9 -2,0.9 -0.5,0 -1.5,-0.2 -2,-1.6 -0.7,0.3 -1.3,0.7 -2,1 -1.6,0.8 -3.3,1.6 -4.9,2.5 -0.1,-0.1 -0.7,0.2 -1.3,0.2 z"
     id="path116"
     inkscape:connector-curvature="0"
     style="fill:#08a642;fill-opacity:1" /><path
     d="m 218.5,99.7 c 0.4,0 0.8,0.1 1.3,0.3 2.2,1 3.9,2.4 4.3,5.2 1.3,10.9 6.3,19.9 15.1,26.6 0.5,0.4 0.9,0.6 1.4,0.6 0.2,0 0.4,-0.1 0.6,-0.2 0.8,-0.5 0.5,-1.3 0.2,-2 -1,-3.3 -2.3,-6.5 -2.1,-10.2 0.3,-4.8 4.1,-8.1 8.6,-8.1 0.8,0 1.7,0.1 2.5,0.4 5.8,1.6 9.5,5.5 12.5,10.3 2.3,3.6 5.1,4.8 7.8,4.8 1.5,0 3,-0.4 4.3,-0.9 3.6,-1.5 6.7,-6.1 4.9,-11.6 -0.2,-0.7 -1.1,-1.9 -0.9,-2.7 0,-0.1 0.2,-0.2 0.4,-0.2 0,0 0,0 0.1,0 0.6,0.2 7.9,12.4 -4.6,17 -1.4,0.5 -2.7,0.7 -3.9,0.7 -5.5,0 -9.4,-4.3 -10.7,-6.1 -1.9,-2.8 -4.4,-4.8 -7.2,-6.6 -0.9,-0.6 -2.1,-0.9 -3.2,-0.9 -1.9,0 -3.9,0.8 -5.3,2.1 -1.8,1.7 -1.9,4.6 -1,7.4 3.6,10.4 11.7,14.7 21.6,17.4 5.5,1.5 11,2.6 17.1,3.2 -2.5,2.4 -5.1,4.3 -7,6.9 -0.3,0.4 -0.7,0.4 -1.1,0.4 -0.2,0 -0.3,0 -0.5,0 -3.8,-0.4 -7.6,-1.2 -11.1,-2.5 -4.8,-1.8 -9.6,-3.3 -14.1,-5.8 -5.1,-2.9 -9.5,-6.7 -14.2,-10.1 -3.1,-2.3 -6,-4.9 -9.1,-7.2 -2.5,-1.9 -5.4,-2.5 -8.3,-2.5 -0.8,0 -1.7,0.1 -2.6,0.1 -1.7,0.2 -2.4,1.4 -2.5,3 -0.2,2.3 1.3,3.3 3.1,3.8 2.5,0.7 5,1.2 7.5,1.8 2.5,0.6 4.8,7.3 2.8,8.2 -3,1.1 -2.4,3.4 -3.1,5.3 -0.2,0.7 -0.5,1 -0.8,1 -0.3,0 -0.6,-0.2 -1,-0.6 -0.4,-0.4 -0.8,-0.5 -1.1,-0.5 -0.6,0 -0.9,0.6 -1,1.4 -0.2,1.4 -1,2.5 -1.8,3.5 -0.2,0.2 -0.4,0.5 -0.6,0.5 -0.2,0 -0.4,-0.1 -0.6,-0.5 -0.4,-0.7 -0.8,-1 -1.2,-1 -0.5,0 -1,0.6 -1.5,1.3 -1.8,2.6 -3,4 -4.1,4 -1.1,0 -2.3,-1.4 -4.1,-4.1 -1.5,-2.2 -1.5,-4.4 -0.4,-6.7 1.1,-2.2 1.2,-4.6 1,-7 -0.1,-1.4 -1,-2.3 -2.2,-2.7 -0.2,-0.1 -0.4,-0.1 -0.6,-0.1 -0.8,0 -1.5,0.6 -2.1,1.2 -2,2.1 -1.9,4.6 -1.6,7.2 0.3,2.8 0.4,5.6 -1.7,8.2 -0.5,-0.9 -0.9,-1.5 -1.3,-2.2 -0.3,0.1 -0.5,0.2 -0.7,0.4 -1.4,1.5 -1.8,3.7 -3.6,5 -0.5,0.3 -0.9,0.8 -1.3,0.8 -0.3,0 -0.6,-0.2 -0.8,-0.8 -0.3,-0.7 -0.7,-1 -1.1,-1 -0.5,0 -0.9,0.3 -1.4,0.7 -1,0.7 -1.7,1.8 -2.8,2.4 -0.3,0.2 -0.9,0.8 -1.4,0.8 -0.3,0 -0.6,-0.3 -0.8,-1.2 -0.1,-0.6 -0.3,-0.8 -0.6,-0.8 -0.3,0 -0.8,0.3 -1.1,0.5 -2.4,1.2 -4.8,2.3 -7.1,3.6 -0.4,0.2 -0.8,0.4 -1,0.4 -0.5,0 -0.7,-0.4 -1.1,-1.3 -2.4,-4.9 -0.8,-9.4 0.6,-14 0.4,-1.4 0.8,-2.2 -1.2,-2.5 -1.8,-0.2 -1.1,-1.8 -0.7,-2.7 0.4,-1 1.1,-2.1 2,-2.7 1.5,-1.2 1.3,-2.1 0,-3.2 -1.1,-1 -0.9,-1.8 0.5,-2.3 1,-0.4 2,-0.8 3,-1 1.5,-0.3 2.8,-0.4 1.4,-2.4 -0.8,-1.1 -0.1,-1.6 1.1,-1.9 1.3,-0.4 2.6,-0.5 3.9,-0.5 1.1,0 2.2,0.1 3.4,0.3 1.2,0.2 2.4,0.5 3.6,0.5 1.3,0 2.5,-0.3 3.7,-1.4 1.3,-1.1 1.3,-2.3 1,-3.6 -0.3,-1.4 -1.4,-1.9 -2.8,-2 -0.5,0 -1,-0.1 -1.5,-0.1 -1.8,0 -3.6,0.3 -5.3,0.9 -0.6,0.2 -1.2,0.3 -1.7,0.3 -1.8,0 -3,-1.1 -4,-2.8 -1.9,-3.1 -3,-6.7 -6.4,-8.7 -0.9,-0.6 -0.2,-1.2 0.4,-1.5 2.1,-0.9 4.2,-2.1 6.5,-2.1 0.4,0 0.9,0 1.4,0.1 0.3,0.1 0.7,0.1 1,0.1 0.8,0 1.5,-0.4 1.6,-1.8 0,-0.8 0.4,-1 0.8,-1 0.4,0 0.9,0.2 1.3,0.2 1.3,0.2 2.5,0.6 3.8,0.6 1.1,0 2.3,-0.3 3.5,-1.5 0.4,-0.4 0.9,-0.5 1.4,-0.5 1.6,0 3.7,1.4 4.9,2.8 0.5,0.6 1,0.9 1.4,0.9 0.4,0 0.8,-0.3 1,-0.8 0.6,-1 1.2,-1.3 1.8,-1.3 0.8,0 1.6,0.5 2.3,0.8 1.3,0.6 2.4,1.5 3.5,2.4 2.6,2.1 3,4.1 1.4,7.1 -1.5,2.8 -0.9,4 2.3,4 2.3,0 4.6,0.2 6.8,0.8 0.3,0.1 0.7,0.2 1.1,0.2 0.3,0 0.5,-0.1 0.8,-0.3 0.6,-0.7 0.2,-1.5 -0.1,-2.1 -2.4,-4.9 -3.1,-10.1 -3.2,-15.4 0.2,-1.7 0.8,-2.2 1.6,-2.2 m -44.4,56.7 c 4.2,-6.5 8.7,-12.8 14.3,-18.3 5.7,-5.6 12.1,-9.8 19.9,-12.6 -2.1,6.4 2.8,15.3 6.2,23.4 0.6,-1.1 0.2,-2.1 -0.1,-3.1 -1.1,-4.6 -3.3,-8.8 -4.6,-13.4 -0.9,-3.4 -0.4,-6.2 2.4,-8.4 1.5,-1.2 1.3,-1.7 -0.2,-2.7 -5,-3.4 -10.2,-6.5 -16,-8.4 -5.6,-1.9 -11.3,-2.6 -17.1,-2.8 -0.1,0 -0.1,0 -0.2,0 -0.6,0 -1.4,0.1 -1.4,0.8 0,0.8 0.9,0.8 1.6,0.9 6,0.5 12.1,1.1 17.8,3.4 4.5,1.8 9,3.9 13.2,7.3 -16.7,6.5 -28.8,17.6 -35.8,33.9 m 44.4,-59.7 c -1.2,0 -2.3,0.4 -3.1,1.3 -0.9,0.9 -1.4,2.3 -1.3,4 0.1,4 0.5,9.1 2.4,14.1 -1.3,-0.2 -2.7,-0.3 -4.2,-0.3 2.1,-4.1 1.3,-7.6 -2.4,-10.5 -0.2,-0.1 -0.3,-0.3 -0.5,-0.4 -1,-0.8 -2.2,-1.8 -3.7,-2.4 -0.1,-0.1 -0.3,-0.1 -0.4,-0.2 -0.8,-0.4 -1.8,-0.9 -3.1,-0.9 -0.7,0 -1.9,0.2 -3,1.1 -1.7,-1.5 -3.9,-2.7 -6.1,-2.7 -1.3,0 -2.5,0.5 -3.5,1.3 -0.7,0.7 -1.1,0.7 -1.5,0.7 -0.5,0 -1.1,-0.1 -1.7,-0.3 -0.5,-0.1 -1,-0.2 -1.6,-0.3 -0.1,0 -0.2,0 -0.3,-0.1 -0.4,-0.1 -0.9,-0.2 -1.5,-0.2 -1.5,0 -3,0.8 -3.6,2.6 -0.4,0 -0.8,-0.1 -1.2,-0.1 -2.5,0 -4.6,0.9 -6.5,1.8 -0.4,0.2 -0.8,0.4 -1.2,0.5 -1.2,0.5 -2.5,1.6 -2.6,3.4 -0.1,1.4 0.6,2.7 1.9,3.4 1.8,1.1 2.7,2.9 3.9,5 0.5,0.9 0.9,1.8 1.5,2.7 0.4,0.7 1.5,2.4 3.4,3.4 -0.7,0.1 -1.5,0.3 -2.2,0.5 -0.7,0.2 -2.7,0.8 -3.4,2.7 -0.2,0.5 -0.3,1.1 -0.2,1.9 -0.5,0.2 -1,0.4 -1.5,0.5 -0.2,0.1 -0.4,0.2 -0.7,0.3 -2.3,0.8 -2.9,2.4 -3.1,3.3 -0.1,0.7 -0.1,2 1,3.4 -1.1,1.1 -1.8,2.4 -2.1,3.2 l -0.1,0.1 c -0.4,0.9 -1.2,2.8 -0.2,4.7 0.3,0.5 0.8,1.1 1.7,1.6 -1.4,4.6 -2.9,9.8 -0.1,15.4 0.5,1 1.5,2.9 3.8,2.9 1,0 1.8,-0.4 2.5,-0.7 1.6,-0.9 3.1,-1.6 4.8,-2.4 0.3,-0.1 0.5,-0.3 0.8,-0.4 1,1.1 2.2,1.1 2.6,1.1 1.4,0 2.4,-0.8 2.9,-1.2 0,0 0.1,0 0.1,-0.1 0.9,-0.5 1.5,-1.2 2.1,-1.7 0.9,0.8 1.8,0.9 2.4,0.9 1.4,0 2.3,-0.8 2.9,-1.2 0.1,-0.1 0.1,-0.1 0.2,-0.2 1,-0.7 1.6,-1.6 2.2,-2.4 l 1.3,2.1 2.7,-3.4 c 0.7,-0.9 1.3,-1.8 1.6,-2.8 0.3,0.8 0.7,1.6 1.2,2.4 1.8,2.7 3.7,5.5 6.6,5.5 2.4,0 4,-1.7 5.8,-4.2 0.6,0.3 1.2,0.4 1.6,0.4 1.6,0 2.6,-1.1 2.9,-1.5 0.7,-0.8 1.4,-1.7 1.9,-2.8 0.2,0.1 0.5,0.1 0.8,0.1 1,0 2.7,-0.4 3.6,-3 0.3,-0.7 0.4,-1.4 0.5,-2 0.2,-1.3 0.2,-1.3 0.9,-1.5 0.7,-0.3 2.9,-1.4 2.7,-5 -0.2,-3.2 -2.4,-8 -5.9,-8.8 -1,-0.2 -1.9,-0.4 -2.9,-0.7 -1.6,-0.3 -3,-0.7 -4.5,-1.1 -0.6,-0.2 -0.9,-0.3 -1,-0.4 0,0 0,-0.1 0,-0.2 0,-0.1 0,-0.2 0.1,-0.3 0.8,-0.1 1.4,-0.1 2.1,-0.1 2.7,0 4.8,0.6 6.5,1.9 1.4,1 2.8,2.2 4.1,3.3 1.6,1.3 3.3,2.7 5,4 1.4,1 2.8,2.1 4.2,3.2 3.2,2.5 6.6,5.1 10.3,7.2 3.9,2.2 8.1,3.7 12.1,5.1 0.8,0.3 1.7,0.6 2.5,0.9 3.6,1.3 7.6,2.2 11.8,2.6 0.2,0 0.5,0 0.8,0 2,0 3.1,-1.1 3.5,-1.7 1.1,-1.6 2.7,-3 4.3,-4.4 0.7,-0.7 1.5,-1.4 2.3,-2.1 l 4.7,-4.5 -6.5,-0.6 c -5.3,-0.5 -10.4,-1.5 -16.7,-3.1 -11,-2.9 -16.8,-7.5 -19.6,-15.4 -0.6,-1.8 -0.5,-3.5 0.2,-4.2 0.8,-0.8 2.1,-1.3 3.2,-1.3 0.6,0 1.2,0.1 1.6,0.4 2.8,1.7 4.8,3.5 6.3,5.7 0.9,1.2 5.6,7.4 13.2,7.4 1.6,0 3.3,-0.3 4.9,-0.9 8.4,-3.1 9.4,-9.2 9.2,-12.5 -0.1,-2.6 -0.9,-4.8 -1.5,-6.3 -1.5,-3.5 -2.7,-3.8 -3.4,-4 -0.3,-0.1 -0.6,-0.1 -0.9,-0.1 -1.3,0 -2.8,0.7 -3.3,2.4 -0.5,1.6 0.3,3.1 0.8,4 0.1,0.1 0.1,0.3 0.2,0.4 1.3,4.2 -1.3,7.1 -3.2,7.9 -1.1,0.5 -2.2,0.7 -3.1,0.7 -2.1,0 -3.8,-1.1 -5.2,-3.4 -2.7,-4.3 -6.8,-9.5 -14.3,-11.6 -1.1,-0.3 -2.2,-0.5 -3.3,-0.5 -6.2,0 -11.2,4.7 -11.6,10.9 -0.2,2.3 0.2,4.3 0.7,6.2 -5.7,-5.6 -9,-12.6 -10,-21.1 -0.6,-5.1 -4.7,-7 -6,-7.6 -0.6,-0.5 -1.5,-0.7 -2.3,-0.7 z m -33.6,27.1 c 1.3,-0.4 2.6,-0.5 3.8,-0.5 0.4,0 0.8,0 1.2,0.1 0.1,0 0.1,0 0.2,0 0,0.1 0,0.2 0,0.2 0,0 -0.1,0.1 -0.1,0.1 -0.5,0.5 -1,0.6 -1.8,0.6 -0.7,0 -1.5,-0.2 -2.3,-0.3 -0.2,0 -0.5,-0.1 -0.7,-0.1 -0.1,0 -0.2,-0.1 -0.3,-0.1 z m -15.2,11.5 z m 31.8,8.8 c 0,0 0,-0.1 0,-0.1 -0.3,-2.5 -0.2,-3.7 0.6,-4.6 0.1,1.8 0,3.4 -0.6,4.7 z"
     id="path118"
     inkscape:connector-curvature="0" /></g>

</svg>