<svg xmlns="http://www.w3.org/2000/svg" id="canvas" viewBox="280.693 340.288 1153.538 170.637"><path d="M 357.72,373.14 C 355.80 372.66, 354.25 372.72, 351.93 374.52 C 349.62 376.33, 349.03 378.34, 346.17 382.17 C 343.30 386.00, 341.46 388.54, 337.62 393.69 C 333.78 398.83, 331.47 401.88, 326.96 407.89 C 322.45 413.90, 319.76 417.30, 315.06 423.75 C 310.37 430.19, 307.72 433.70, 303.48 440.11 C 299.25 446.51, 297.14 449.84, 293.88 455.77 C 290.62 461.70, 289.15 464.52, 287.17 469.76 C 285.19 475.00, 284.40 477.38, 283.95 481.96 C 283.51 486.55, 283.51 488.82, 284.95 492.68 C 286.40 496.53, 287.85 498.55, 291.17 501.24 C 294.49 503.93, 296.92 504.80, 301.55 506.11 C 306.17 507.42, 308.87 507.49, 314.30 507.78 C 319.72 508.07, 322.72 507.89, 328.67 507.56 C 334.62 507.23, 337.92 506.83, 344.05 506.12 C 350.17 505.41, 353.41 504.88, 359.30 504.01 C 365.19 503.14, 368.21 502.63, 373.50 501.77 C 378.80 500.92, 381.38 500.39, 385.77 499.73 C 390.16 499.07, 392.22 499.14, 395.46 498.48 C 398.71 497.83, 400.00 497.38, 402.00 496.46 C 403.99 495.53, 404.45 494.92, 405.44 493.85 C 406.44 492.78, 406.72 492.09, 406.97 491.10 C 407.21 490.12, 407.29 489.56, 406.69 488.92 C 406.09 488.27, 404.69 488.20, 403.96 487.88 C 403.24 487.55, 403.52 487.57, 403.08 487.29 C 402.63 487.00, 402.64 486.60, 401.76 486.46 C 400.87 486.33, 400.46 486.26, 398.66 486.62 C 396.86 486.97, 395.71 487.28, 392.77 488.26 C 389.82 489.23, 388.05 490.24, 383.92 491.50 C 379.79 492.76, 377.26 493.43, 372.13 494.57 C 366.99 495.71, 364.01 496.27, 358.25 497.20 C 352.48 498.14, 349.27 498.64, 343.30 499.24 C 337.34 499.83, 334.08 500.11, 328.42 500.17 C 322.76 500.23, 319.84 500.12, 315.00 499.53 C 310.17 498.94, 307.82 498.42, 304.25 497.23 C 300.68 496.04, 299.31 495.20, 297.14 493.59 C 294.98 491.99, 294.47 491.44, 293.41 489.20 C 292.35 486.97, 291.83 485.87, 291.84 482.41 C 291.85 478.95, 292.02 476.69, 293.45 471.90 C 294.88 467.11, 296.08 464.23, 298.99 458.47 C 301.90 452.70, 303.91 449.36, 308.00 443.07 C 312.08 436.77, 314.70 433.28, 319.44 426.99 C 324.18 420.71, 326.92 417.35, 331.69 411.64 C 336.47 405.93, 338.99 403.05, 343.30 398.43 C 347.62 393.82, 349.86 391.71, 353.27 388.54 C 356.68 385.38, 358.69 384.93, 360.35 382.61 C 362.00 380.29, 362.08 378.83, 361.55 376.93 C 361.03 375.04, 359.65 373.62, 357.72 373.14" style="stroke: black; fill: black;"/><path d="M 312.75,430.50 C 314.25 431.86, 315.69 432.32, 318.23 432.04 C 320.76 431.76, 322.01 430.53, 325.43 429.10 C 328.85 427.66, 331.11 426.75, 335.33 424.87 C 339.55 423.00, 344.83 422.32, 346.54 419.71 C 348.26 417.10, 346.86 412.87, 343.90 411.84 C 340.94 410.80, 336.27 413.35, 331.72 414.53 C 327.18 415.70, 324.78 416.53, 321.18 417.72 C 317.58 418.90, 315.83 418.95, 313.74 420.46 C 311.65 421.97, 310.93 423.26, 310.73 425.27 C 310.53 427.28, 311.25 429.15, 312.75 430.50" style="stroke: black; fill: black;"/><path d="M 351.40,394.33 C 352.92 395.25, 353.59 395.40, 355.49 395.18 C 357.40 394.95, 358.38 394.60, 360.92 393.18 C 363.47 391.76, 364.75 389.94, 368.23 388.07 C 371.70 386.20, 373.98 385.29, 378.31 383.82 C 382.64 382.36, 385.64 381.84, 389.86 380.74 C 394.08 379.64, 396.38 379.56, 399.40 378.33 C 402.42 377.10, 404.03 376.25, 404.96 374.59 C 405.89 372.93, 405.59 371.20, 404.05 370.04 C 402.50 368.88, 400.55 368.56, 397.22 368.78 C 393.88 369.01, 391.73 370.04, 387.38 371.16 C 383.03 372.29, 380.13 373.14, 375.46 374.40 C 370.78 375.66, 368.27 376.26, 364.01 377.46 C 359.75 378.67, 357.25 378.84, 354.15 380.42 C 351.04 382.00, 349.74 383.34, 348.49 385.36 C 347.24 387.39, 347.32 388.74, 347.90 390.53 C 348.48 392.32, 349.88 393.40, 351.40 394.33" style="stroke: black; fill: black;"/><path d="M 447.77,414.16 C 446.03 414.81, 445.33 415.49, 444.45 417.49 C 443.56 419.49, 443.58 420.72, 443.34 424.16 C 443.10 427.59, 443.60 430.03, 443.23 434.67 C 442.87 439.30, 442.38 442.10, 441.50 447.32 C 440.63 452.54, 439.94 455.57, 438.86 460.77 C 437.78 465.98, 437.06 468.65, 436.12 473.34 C 435.17 478.02, 434.26 480.31, 434.12 484.19 C 433.99 488.08, 433.88 490.06, 435.43 492.77 C 436.98 495.48, 438.82 496.81, 441.87 497.76 C 444.93 498.72, 447.60 499.28, 450.70 497.56 C 453.80 495.85, 454.41 493.30, 457.37 489.18 C 460.34 485.07, 461.83 482.44, 465.52 477.00 C 469.21 471.57, 471.39 468.23, 475.83 462.00 C 480.26 455.77, 482.93 452.17, 487.70 445.86 C 492.47 439.54, 495.15 436.09, 499.69 430.44 C 504.23 424.78, 506.54 421.93, 510.39 417.57 C 514.24 413.21, 516.12 411.39, 518.93 408.65 C 521.75 405.91, 523.19 405.52, 524.45 403.86 C 525.70 402.20, 525.10 401.31, 525.21 400.36 C 525.33 399.40, 525.08 399.71, 525.02 399.09 C 524.97 398.47, 525.42 397.85, 524.93 397.25 C 524.44 396.65, 523.99 396.12, 522.59 396.10 C 521.20 396.07, 519.90 395.69, 517.95 397.13 C 516.00 398.56, 515.34 399.98, 512.84 403.27 C 510.33 406.56, 508.94 408.82, 505.43 413.56 C 501.92 418.30, 499.70 421.19, 495.28 426.98 C 490.86 432.78, 488.18 436.24, 483.34 442.53 C 478.49 448.81, 475.76 452.41, 471.04 458.42 C 466.31 464.42, 463.90 467.68, 459.71 472.57 C 455.53 477.46, 453.37 479.83, 450.11 482.85 C 446.86 485.87, 444.83 486.08, 443.44 487.65 C 442.05 489.22, 442.98 490.27, 443.16 490.71 C 443.33 491.14, 444.07 491.07, 444.30 489.83 C 444.54 488.59, 444.28 487.52, 444.35 484.49 C 444.41 481.46, 444.13 479.09, 444.62 474.67 C 445.11 470.26, 445.72 467.53, 446.77 462.40 C 447.83 457.28, 448.59 454.26, 449.88 449.06 C 451.17 443.86, 452.00 441.06, 453.23 436.39 C 454.46 431.72, 455.43 429.33, 456.05 425.72 C 456.67 422.10, 456.92 420.62, 456.34 418.32 C 455.75 416.02, 454.84 415.06, 453.12 414.23 C 451.41 413.40, 449.50 413.51, 447.77 414.16" style="stroke: black; fill: black;"/><path d="M 536.25,461.01 C 537.73 462.31, 539.04 462.82, 541.52 462.46 C 544.00 462.09, 545.28 461.02, 548.65 459.20 C 552.03 457.38, 554.19 455.92, 558.41 453.35 C 562.62 450.78, 565.20 449.21, 569.74 446.35 C 574.28 443.50, 576.78 441.95, 581.10 439.07 C 585.42 436.19, 587.68 434.79, 591.36 431.95 C 595.04 429.11, 597.14 427.97, 599.49 424.87 C 601.84 421.78, 602.84 419.89, 603.10 416.48 C 603.36 413.08, 602.83 410.70, 600.79 407.85 C 598.75 404.99, 596.78 403.06, 592.89 402.19 C 589.00 401.32, 586.38 402.18, 581.35 403.51 C 576.32 404.84, 573.49 406.00, 567.74 408.84 C 561.99 411.68, 558.64 413.61, 552.60 417.73 C 546.56 421.84, 543.12 424.49, 537.55 429.42 C 531.97 434.35, 529.05 437.20, 524.72 442.38 C 520.40 447.56, 518.35 450.24, 515.91 455.32 C 513.46 460.40, 512.50 463.04, 512.51 467.78 C 512.52 472.51, 513.34 475.22, 515.94 478.98 C 518.54 482.74, 520.89 484.34, 525.50 486.58 C 530.11 488.82, 533.10 489.39, 539.01 490.17 C 544.93 490.96, 548.33 490.92, 555.08 490.51 C 561.83 490.10, 565.62 489.54, 572.77 488.14 C 579.91 486.74, 583.82 485.71, 590.81 483.51 C 597.79 481.31, 601.76 479.67, 607.71 477.14 C 613.66 474.61, 616.55 473.27, 620.56 470.87 C 624.58 468.46, 626.82 467.05, 627.77 465.13 C 628.71 463.20, 627.39 461.26, 625.31 461.24 C 623.23 461.23, 621.42 463.05, 617.38 465.06 C 613.35 467.07, 610.82 468.72, 605.14 471.29 C 599.47 473.86, 595.70 475.70, 589.01 477.90 C 582.31 480.09, 578.51 481.05, 571.67 482.26 C 564.83 483.46, 561.12 483.82, 554.82 483.92 C 548.53 484.02, 545.32 483.72, 540.18 482.77 C 535.04 481.82, 532.64 480.89, 529.14 479.16 C 525.65 477.42, 524.50 476.39, 522.71 474.09 C 520.92 471.79, 520.33 470.83, 520.21 467.65 C 520.08 464.46, 520.23 462.43, 522.08 458.15 C 523.93 453.88, 525.60 451.12, 529.48 446.27 C 533.36 441.42, 536.16 438.54, 541.48 433.90 C 546.80 429.26, 550.23 426.70, 556.08 423.07 C 561.94 419.43, 565.35 417.76, 570.75 415.73 C 576.16 413.69, 579.11 413.25, 583.11 412.89 C 587.11 412.52, 588.67 413.70, 590.77 413.92 C 592.88 414.13, 593.08 413.79, 593.64 413.97 C 594.20 414.15, 594.06 413.90, 593.57 414.81 C 593.07 415.72, 592.75 416.45, 591.16 418.51 C 589.57 420.58, 588.55 422.40, 585.61 425.14 C 582.67 427.88, 580.52 429.46, 576.48 432.23 C 572.44 435.00, 569.93 436.53, 565.41 438.99 C 560.89 441.46, 558.25 442.70, 553.88 444.55 C 549.51 446.39, 547.01 446.87, 543.56 448.21 C 540.10 449.56, 538.49 449.73, 536.61 451.29 C 534.72 452.84, 534.20 454.05, 534.13 455.99 C 534.06 457.94, 534.77 459.72, 536.25 461.01" style="stroke: black; fill: black;"/><path d="M 658.67,415.32 C 656.69 415.74, 655.64 416.59, 654.20 418.91 C 652.75 421.24, 652.96 423.16, 651.45 426.95 C 649.94 430.75, 648.80 433.50, 646.63 437.89 C 644.47 442.28, 643.08 444.86, 640.62 448.90 C 638.16 452.94, 636.33 454.87, 634.32 458.09 C 632.31 461.31, 630.70 462.59, 630.56 464.99 C 630.42 467.39, 631.74 469.02, 633.63 470.09 C 635.53 471.15, 637.88 471.76, 640.05 470.31 C 642.21 468.86, 642.20 466.63, 644.48 462.84 C 646.76 459.05, 647.99 456.16, 651.45 451.36 C 654.92 446.57, 657.18 443.61, 661.82 438.85 C 666.47 434.09, 669.40 431.56, 674.68 427.55 C 679.95 423.54, 683.05 421.57, 688.18 418.79 C 693.31 416.02, 696.14 414.88, 700.33 413.67 C 704.52 412.45, 706.58 412.58, 709.14 412.72 C 711.69 412.85, 712.05 413.31, 713.10 414.32 C 714.16 415.33, 714.11 415.58, 714.41 417.77 C 714.71 419.96, 715.02 421.59, 714.61 425.28 C 714.20 428.98, 713.66 431.65, 712.35 436.24 C 711.04 440.83, 709.90 443.56, 708.05 448.21 C 706.20 452.86, 704.78 455.27, 703.09 459.49 C 701.41 463.71, 699.98 465.92, 699.64 469.31 C 699.30 472.70, 700.11 474.95, 701.39 476.46 C 702.66 477.97, 704.52 477.85, 706.01 476.86 C 707.50 475.86, 707.69 474.30, 708.82 471.48 C 709.94 468.65, 710.18 466.76, 711.64 462.74 C 713.09 458.73, 714.21 456.16, 716.08 451.40 C 717.96 446.65, 719.34 443.92, 721.03 438.97 C 722.72 434.02, 723.79 431.36, 724.54 426.66 C 725.29 421.96, 725.86 419.45, 724.79 415.47 C 723.72 411.49, 722.28 409.09, 719.20 406.76 C 716.11 404.43, 713.60 403.87, 709.35 403.83 C 705.09 403.80, 702.81 404.75, 697.93 406.60 C 693.06 408.46, 690.37 409.92, 684.96 413.12 C 679.56 416.31, 676.46 418.39, 670.91 422.58 C 665.35 426.77, 662.33 429.36, 657.19 434.07 C 652.05 438.78, 649.51 441.65, 645.21 446.15 C 640.91 450.65, 638.69 452.99, 635.70 456.56 C 632.72 460.12, 630.77 461.35, 630.29 463.97 C 629.81 466.60, 631.58 468.48, 633.31 469.67 C 635.05 470.85, 636.97 471.15, 638.96 469.92 C 640.95 468.69, 641.34 466.78, 643.26 463.51 C 645.19 460.25, 646.20 457.78, 648.58 453.58 C 650.96 449.37, 652.61 446.87, 655.17 442.49 C 657.73 438.11, 659.28 435.53, 661.40 431.68 C 663.52 427.83, 665.24 426.21, 665.78 423.23 C 666.31 420.26, 665.49 418.39, 664.07 416.81 C 662.65 415.23, 660.64 414.90, 658.67 415.32" style="stroke: black; fill: black;"/><path d="M 764.08,451.08 C 764.86 452.81, 765.80 453.91, 768.16 454.49 C 770.52 455.08, 772.25 454.88, 775.87 453.99 C 779.50 453.09, 781.76 451.78, 786.28 450.00 C 790.81 448.23, 793.52 447.17, 798.48 445.11 C 803.44 443.05, 806.25 441.85, 811.07 439.70 C 815.89 437.55, 818.37 436.44, 822.57 434.36 C 826.77 432.29, 829.08 431.72, 832.08 429.33 C 835.07 426.94, 836.59 425.51, 837.55 422.41 C 838.52 419.31, 838.39 416.83, 836.89 413.82 C 835.40 410.82, 833.75 408.56, 830.09 407.37 C 826.43 406.19, 823.79 407.03, 818.61 407.89 C 813.42 408.75, 810.35 409.55, 804.15 411.67 C 797.95 413.80, 794.26 415.29, 787.59 418.52 C 780.92 421.74, 777.11 423.83, 770.79 427.79 C 764.47 431.75, 761.12 434.04, 755.99 438.32 C 750.85 442.59, 748.45 444.79, 745.12 449.16 C 741.79 453.53, 740.29 455.73, 739.32 460.17 C 738.36 464.60, 738.50 467.40, 740.29 471.33 C 742.08 475.27, 744.17 477.17, 748.26 479.83 C 752.35 482.48, 755.11 483.27, 760.74 484.62 C 766.37 485.96, 769.68 486.25, 776.42 486.54 C 783.17 486.83, 787.05 486.64, 794.46 486.05 C 801.86 485.45, 806.47 484.67, 813.43 483.58 C 820.39 482.49, 824.02 481.83, 829.25 480.61 C 834.48 479.38, 837.75 479.05, 839.59 477.47 C 841.42 475.89, 840.76 473.28, 838.44 472.70 C 836.12 472.11, 833.19 473.61, 827.99 474.55 C 822.80 475.50, 819.26 476.34, 812.46 477.42 C 805.66 478.49, 801.12 479.44, 794.00 479.93 C 786.88 480.42, 783.11 480.43, 776.86 479.86 C 770.62 479.29, 767.54 478.56, 762.78 477.09 C 758.02 475.61, 755.96 474.43, 753.05 472.51 C 750.14 470.58, 749.40 469.62, 748.22 467.47 C 747.04 465.32, 746.67 464.60, 747.17 461.75 C 747.67 458.90, 748.16 456.98, 750.72 453.23 C 753.29 449.48, 755.35 447.08, 759.98 442.99 C 764.62 438.91, 767.87 436.56, 773.92 432.80 C 779.96 429.05, 783.75 427.02, 790.21 424.23 C 796.67 421.43, 800.38 420.18, 806.22 418.82 C 812.06 417.46, 815.21 417.36, 819.41 417.43 C 823.62 417.49, 825.12 418.94, 827.25 419.15 C 829.38 419.36, 829.65 418.65, 830.08 418.47 C 830.51 418.29, 830.31 417.73, 829.42 418.25 C 828.53 418.77, 827.87 419.40, 825.65 421.07 C 823.42 422.74, 821.90 424.40, 818.30 426.62 C 814.71 428.84, 812.26 430.10, 807.69 432.17 C 803.12 434.24, 800.31 435.38, 795.45 436.96 C 790.59 438.55, 787.83 439.25, 783.39 440.09 C 778.95 440.94, 776.48 440.66, 773.23 441.18 C 769.98 441.70, 768.94 441.76, 767.15 442.70 C 765.35 443.64, 764.88 444.19, 764.27 445.86 C 763.65 447.54, 763.30 449.35, 764.08 451.08" style="stroke: black; fill: black;"/><path d="M 899.05,418.40 C 897.17 418.53, 896.11 418.91, 894.60 420.77 C 893.09 422.64, 893.04 424.24, 891.50 427.73 C 889.96 431.23, 889.05 433.83, 886.90 438.26 C 884.75 442.70, 883.34 445.46, 880.76 449.92 C 878.18 454.37, 876.59 456.84, 874.01 460.55 C 871.43 464.27, 869.08 465.58, 867.85 468.49 C 866.63 471.39, 866.80 473.10, 867.88 475.07 C 868.96 477.04, 870.93 478.29, 873.25 478.33 C 875.56 478.37, 877.22 477.84, 879.46 475.27 C 881.71 472.71, 881.86 469.92, 884.47 465.52 C 887.09 461.11, 888.77 458.22, 892.52 453.26 C 896.28 448.30, 898.77 445.45, 903.25 440.70 C 907.72 435.94, 910.32 433.39, 914.89 429.49 C 919.47 425.58, 922.04 423.69, 926.13 421.18 C 930.21 418.68, 932.55 418.05, 935.32 416.98 C 938.09 415.90, 938.93 415.90, 939.98 415.82 C 941.02 415.74, 940.57 415.62, 940.55 416.58 C 940.53 417.54, 940.17 418.13, 939.88 420.62 C 939.59 423.11, 939.89 425.18, 939.09 429.02 C 938.28 432.85, 937.50 435.51, 935.87 439.80 C 934.23 444.09, 933.02 446.66, 930.91 450.46 C 928.81 454.26, 926.54 455.73, 925.34 458.80 C 924.14 461.88, 923.94 463.58, 924.92 465.83 C 925.90 468.07, 927.84 469.70, 930.26 470.03 C 932.68 470.36, 934.26 469.86, 937.03 467.47 C 939.81 465.07, 940.56 462.26, 944.13 458.05 C 947.70 453.84, 950.05 451.00, 954.87 446.41 C 959.68 441.81, 962.76 439.16, 968.21 435.09 C 973.66 431.03, 976.81 429.01, 982.11 426.08 C 987.41 423.14, 990.33 421.90, 994.71 420.44 C 999.09 418.98, 1001.32 419.00, 1004.00 418.75 C 1006.68 418.51, 1007.26 418.69, 1008.10 419.21 C 1008.94 419.73, 1008.28 419.74, 1008.22 421.35 C 1008.15 422.96, 1008.42 424.07, 1007.78 427.26 C 1007.15 430.45, 1006.62 432.96, 1005.06 437.30 C 1003.49 441.65, 1002.17 444.39, 999.97 448.97 C 997.77 453.55, 996.27 456.08, 994.05 460.19 C 991.83 464.30, 990.18 466.33, 988.88 469.54 C 987.58 472.75, 987.50 474.10, 987.53 476.24 C 987.57 478.38, 988.10 479.28, 989.04 480.23 C 989.97 481.18, 990.99 481.25, 992.21 480.99 C 993.44 480.73, 993.87 480.35, 995.16 478.92 C 996.45 477.49, 997.25 476.79, 998.66 473.83 C 1000.06 470.88, 1000.35 468.36, 1002.19 464.16 C 1004.02 459.96, 1005.49 457.50, 1007.83 452.85 C 1010.18 448.20, 1011.83 445.58, 1013.93 440.91 C 1016.03 436.25, 1017.38 433.86, 1018.35 429.51 C 1019.33 425.15, 1019.94 422.72, 1018.80 419.15 C 1017.65 415.57, 1015.77 413.51, 1012.65 411.64 C 1009.52 409.78, 1007.29 409.44, 1003.17 409.83 C 999.05 410.22, 996.90 411.47, 992.04 413.60 C 987.19 415.73, 984.41 417.21, 978.90 420.48 C 973.38 423.76, 970.20 425.86, 964.46 429.97 C 958.72 434.09, 955.56 436.75, 950.19 441.05 C 944.82 445.35, 941.96 447.83, 937.61 451.46 C 933.26 455.09, 930.61 456.43, 928.43 459.19 C 926.24 461.94, 926.18 463.49, 926.69 465.25 C 927.20 467.01, 929.13 468.16, 930.97 467.97 C 932.82 467.77, 934.18 466.90, 935.93 464.26 C 937.68 461.62, 937.93 458.91, 939.71 454.75 C 941.49 450.58, 942.87 448.01, 944.82 443.42 C 946.77 438.83, 948.04 436.30, 949.47 431.80 C 950.90 427.30, 952.11 424.90, 951.97 420.91 C 951.83 416.91, 950.95 414.59, 948.77 411.82 C 946.60 409.06, 944.48 407.74, 941.11 407.09 C 937.74 406.44, 935.77 406.98, 931.93 408.57 C 928.10 410.16, 926.23 411.85, 921.95 415.03 C 917.67 418.22, 915.21 420.28, 910.52 424.49 C 905.82 428.70, 903.22 431.30, 898.47 436.08 C 893.72 440.87, 891.18 443.72, 886.78 448.41 C 882.38 453.10, 880.07 455.66, 876.48 459.53 C 872.90 463.41, 870.50 464.83, 868.85 467.78 C 867.20 470.73, 867.44 472.38, 868.25 474.29 C 869.06 476.19, 870.93 477.31, 872.89 477.31 C 874.85 477.32, 876.24 476.71, 878.04 474.31 C 879.85 471.92, 879.86 469.30, 881.92 465.32 C 883.98 461.34, 885.62 458.85, 888.33 454.41 C 891.04 449.96, 892.72 447.33, 895.46 443.07 C 898.20 438.82, 899.97 436.65, 902.03 433.15 C 904.09 429.64, 905.34 428.14, 905.74 425.55 C 906.14 422.95, 905.37 421.60, 904.04 420.17 C 902.70 418.74, 900.94 418.28, 899.05 418.40" style="stroke: black; fill: black;"/><path d="M 1052.21,455.76 C 1053.10 457.46, 1054.09 458.47, 1056.48 458.97 C 1058.87 459.46, 1060.56 459.17, 1064.15 458.23 C 1067.75 457.30, 1070.02 456.05, 1074.47 454.29 C 1078.92 452.53, 1081.59 451.47, 1086.41 449.43 C 1091.23 447.40, 1093.92 446.21, 1098.57 444.10 C 1103.23 441.99, 1105.63 440.89, 1109.68 438.87 C 1113.73 436.85, 1116.04 436.39, 1118.81 433.99 C 1121.58 431.58, 1122.80 429.95, 1123.54 426.85 C 1124.27 423.75, 1124.08 421.38, 1122.47 418.50 C 1120.86 415.61, 1119.15 413.49, 1115.47 412.44 C 1111.79 411.38, 1109.18 412.29, 1104.08 413.22 C 1098.99 414.14, 1096.01 414.98, 1089.99 417.07 C 1083.97 419.16, 1080.41 420.56, 1074.00 423.67 C 1067.59 426.77, 1063.93 428.77, 1057.92 432.59 C 1051.91 436.40, 1048.77 438.61, 1043.96 442.75 C 1039.15 446.90, 1036.89 448.98, 1033.86 453.30 C 1030.83 457.62, 1029.45 459.92, 1028.82 464.35 C 1028.18 468.78, 1028.56 471.61, 1030.68 475.45 C 1032.79 479.29, 1035.00 481.07, 1039.41 483.54 C 1043.81 486.01, 1046.72 486.71, 1052.71 487.81 C 1058.70 488.90, 1062.27 489.03, 1069.36 489.00 C 1076.45 488.97, 1080.52 488.62, 1088.17 487.65 C 1095.82 486.69, 1100.04 485.91, 1107.60 484.19 C 1115.15 482.48, 1119.10 481.33, 1125.94 479.09 C 1132.79 476.85, 1136.41 475.36, 1141.82 472.99 C 1147.22 470.61, 1149.70 469.48, 1152.98 467.21 C 1156.27 464.94, 1157.68 463.43, 1158.24 461.63 C 1158.80 459.83, 1157.58 458.33, 1155.79 458.23 C 1154.00 458.13, 1152.64 459.37, 1149.29 461.13 C 1145.94 462.89, 1144.07 464.53, 1139.03 467.04 C 1133.99 469.55, 1130.61 471.33, 1124.09 473.70 C 1117.56 476.06, 1113.70 477.21, 1106.39 478.87 C 1099.08 480.52, 1094.91 481.23, 1087.53 481.98 C 1080.14 482.72, 1076.13 482.90, 1069.48 482.60 C 1062.83 482.31, 1059.44 481.79, 1054.27 480.50 C 1049.11 479.21, 1046.84 478.05, 1043.66 476.15 C 1040.48 474.25, 1039.70 473.16, 1038.37 471.01 C 1037.04 468.87, 1036.72 468.16, 1037.02 465.43 C 1037.32 462.69, 1037.64 460.90, 1039.88 457.33 C 1042.13 453.76, 1043.97 451.49, 1048.24 447.58 C 1052.51 443.68, 1055.53 441.40, 1061.22 437.80 C 1066.92 434.20, 1070.54 432.27, 1076.72 429.59 C 1082.90 426.91, 1086.47 425.73, 1092.13 424.40 C 1097.79 423.08, 1100.85 422.94, 1105.02 422.98 C 1109.18 423.02, 1110.76 424.44, 1112.95 424.60 C 1115.14 424.76, 1115.46 424.05, 1115.97 423.78 C 1116.48 423.50, 1116.29 422.89, 1115.48 423.23 C 1114.66 423.57, 1113.96 423.96, 1111.89 425.49 C 1109.83 427.02, 1108.53 428.70, 1105.16 430.88 C 1101.78 433.06, 1099.39 434.33, 1095.01 436.38 C 1090.63 438.44, 1087.96 439.56, 1083.26 441.14 C 1078.56 442.72, 1075.87 443.42, 1071.49 444.29 C 1067.12 445.15, 1064.67 444.93, 1061.39 445.49 C 1058.10 446.04, 1056.94 446.07, 1055.07 447.07 C 1053.21 448.07, 1052.64 448.73, 1052.07 450.47 C 1051.50 452.21, 1051.33 454.06, 1052.21 455.76" style="stroke: black; fill: black;"/><path d="M 1179.50,423.89 C 1177.56 424.02, 1176.54 424.50, 1174.93 426.43 C 1173.32 428.35, 1173.15 430.05, 1171.45 433.52 C 1169.74 436.98, 1168.67 439.63, 1166.40 443.75 C 1164.14 447.86, 1162.69 450.30, 1160.12 454.09 C 1157.55 457.89, 1155.52 459.61, 1153.54 462.72 C 1151.56 465.83, 1150.24 467.22, 1150.21 469.64 C 1150.18 472.06, 1151.43 473.64, 1153.40 474.84 C 1155.36 476.03, 1157.66 476.86, 1160.01 475.60 C 1162.37 474.35, 1162.59 472.13, 1165.16 468.55 C 1167.72 464.97, 1169.08 462.24, 1172.83 457.71 C 1176.58 453.17, 1179.00 450.37, 1183.90 445.88 C 1188.80 441.38, 1191.86 438.99, 1197.32 435.24 C 1202.79 431.49, 1205.98 429.68, 1211.23 427.13 C 1216.47 424.58, 1219.32 423.54, 1223.57 422.49 C 1227.82 421.44, 1229.90 421.69, 1232.49 421.88 C 1235.07 422.07, 1235.49 422.46, 1236.51 423.44 C 1237.54 424.43, 1237.39 424.65, 1237.63 426.79 C 1237.88 428.93, 1238.21 430.57, 1237.73 434.15 C 1237.25 437.74, 1236.66 440.26, 1235.23 444.71 C 1233.79 449.16, 1232.58 451.91, 1230.55 456.41 C 1228.53 460.92, 1226.97 463.30, 1225.10 467.23 C 1223.24 471.16, 1221.91 473.04, 1221.22 476.07 C 1220.53 479.11, 1220.75 480.82, 1221.65 482.40 C 1222.54 483.98, 1223.98 484.49, 1225.69 483.96 C 1227.41 483.43, 1228.61 482.31, 1230.20 479.73 C 1231.79 477.16, 1231.99 475.03, 1233.67 471.08 C 1235.34 467.13, 1236.52 464.64, 1238.57 459.98 C 1240.62 455.32, 1242.08 452.61, 1243.92 447.77 C 1245.76 442.93, 1246.91 440.41, 1247.76 435.77 C 1248.60 431.13, 1249.19 428.54, 1248.15 424.58 C 1247.12 420.62, 1245.63 418.28, 1242.58 415.96 C 1239.53 413.64, 1237.12 413.10, 1232.90 412.97 C 1228.67 412.85, 1226.38 413.67, 1221.45 415.33 C 1216.52 417.00, 1213.79 418.37, 1208.26 421.31 C 1202.73 424.26, 1199.54 426.16, 1193.79 430.06 C 1188.04 433.96, 1184.89 436.41, 1179.52 440.81 C 1174.14 445.20, 1171.45 447.91, 1166.91 452.04 C 1162.36 456.17, 1160.00 458.25, 1156.80 461.45 C 1153.60 464.65, 1151.61 465.61, 1150.90 468.04 C 1150.18 470.48, 1151.73 472.38, 1153.24 473.63 C 1154.75 474.89, 1156.54 475.29, 1158.45 474.30 C 1160.35 473.31, 1160.80 471.66, 1162.75 468.68 C 1164.71 465.70, 1165.74 463.32, 1168.23 459.41 C 1170.71 455.49, 1172.46 453.13, 1175.17 449.11 C 1177.88 445.09, 1179.59 442.79, 1181.78 439.30 C 1183.97 435.81, 1185.54 434.38, 1186.10 431.66 C 1186.67 428.95, 1185.92 427.29, 1184.60 425.73 C 1183.28 424.18, 1181.43 423.75, 1179.50 423.89" style="stroke: black; fill: black;"/><path d="M 1329.08,343.32 C 1327.29 343.48, 1326.24 343.59, 1324.86 345.65 C 1323.48 347.70, 1323.74 349.44, 1322.17 353.59 C 1320.59 357.74, 1319.59 360.61, 1316.98 366.41 C 1314.38 372.21, 1312.60 375.84, 1309.12 382.58 C 1305.64 389.33, 1303.42 393.15, 1299.58 400.14 C 1295.73 407.13, 1293.56 410.86, 1289.92 417.53 C 1286.28 424.21, 1284.45 427.58, 1281.39 433.52 C 1278.33 439.46, 1276.94 442.30, 1274.62 447.22 C 1272.30 452.14, 1271.33 454.23, 1269.81 458.10 C 1268.29 461.98, 1267.16 463.72, 1267.02 466.59 C 1266.88 469.47, 1268.10 470.90, 1269.10 472.48 C 1270.10 474.05, 1270.86 474.28, 1272.02 474.46 C 1273.19 474.65, 1274.07 474.04, 1274.93 473.40 C 1275.78 472.75, 1275.79 472.40, 1276.32 471.23 C 1276.85 470.07, 1277.24 469.73, 1277.57 467.59 C 1277.90 465.44, 1277.32 464.06, 1277.98 460.50 C 1278.64 456.94, 1279.13 454.67, 1280.86 449.79 C 1282.58 444.90, 1283.83 442.00, 1286.58 436.06 C 1289.34 430.12, 1291.09 426.73, 1294.64 420.08 C 1298.19 413.42, 1300.36 409.71, 1304.31 402.79 C 1308.27 395.88, 1310.55 392.08, 1314.42 385.51 C 1318.29 378.94, 1320.30 375.44, 1323.66 369.94 C 1327.02 364.43, 1328.84 361.97, 1331.21 357.98 C 1333.59 353.99, 1335.04 352.60, 1335.55 349.98 C 1336.07 347.35, 1335.07 346.19, 1333.78 344.86 C 1332.48 343.53, 1330.86 343.17, 1329.08 343.32" style="stroke: black; fill: black;"/><path d="M 1268.06,425.82 C 1269.16 427.46, 1270.25 428.47, 1272.97 428.75 C 1275.70 429.03, 1277.44 427.86, 1281.68 427.22 C 1285.92 426.57, 1288.82 426.07, 1294.18 425.51 C 1299.54 424.95, 1302.65 424.75, 1308.47 424.42 C 1314.30 424.09, 1317.90 424.05, 1323.29 423.85 C 1328.69 423.65, 1331.48 423.85, 1335.44 423.42 C 1339.40 422.99, 1341.56 422.99, 1343.09 421.72 C 1344.61 420.45, 1344.62 418.32, 1343.05 417.07 C 1341.48 415.83, 1339.25 415.70, 1335.24 415.48 C 1331.22 415.26, 1328.39 415.73, 1322.97 415.97 C 1317.55 416.21, 1313.99 416.54, 1308.15 416.69 C 1302.31 416.84, 1299.21 416.77, 1293.76 416.73 C 1288.31 416.69, 1285.31 416.51, 1280.91 416.47 C 1276.52 416.44, 1274.46 415.75, 1271.78 416.56 C 1269.09 417.37, 1268.21 418.68, 1267.47 420.53 C 1266.72 422.38, 1266.96 424.17, 1268.06 425.82" style="stroke: black; fill: black;"/><path d="M 1431.10,414.69 C 1430.61 412.67, 1429.63 411.02, 1427.01 409.93 C 1424.38 408.85, 1422.19 409.01, 1417.97 409.27 C 1413.75 409.52, 1410.99 410.03, 1405.90 411.21 C 1400.81 412.39, 1397.87 413.43, 1392.53 415.18 C 1387.18 416.94, 1384.18 417.92, 1379.18 419.98 C 1374.19 422.05, 1371.56 423.05, 1367.56 425.50 C 1363.57 427.96, 1361.21 428.96, 1359.21 432.24 C 1357.20 435.52, 1356.96 438.22, 1357.52 441.91 C 1358.08 445.61, 1359.21 447.80, 1362.02 450.70 C 1364.84 453.59, 1367.33 454.31, 1371.59 456.38 C 1375.85 458.45, 1378.57 459.24, 1383.33 461.06 C 1388.09 462.88, 1390.91 463.72, 1395.38 465.50 C 1399.85 467.28, 1402.36 468.27, 1405.70 469.94 C 1409.03 471.61, 1410.19 473.07, 1412.05 473.84 C 1413.91 474.61, 1414.69 474.05, 1415.01 473.78 C 1415.32 473.51, 1414.93 472.45, 1413.63 472.49 C 1412.33 472.53, 1411.40 472.86, 1408.50 473.98 C 1405.59 475.10, 1403.52 476.56, 1399.11 478.09 C 1394.70 479.63, 1391.81 480.45, 1386.44 481.67 C 1381.07 482.88, 1377.87 483.37, 1372.26 484.16 C 1366.65 484.94, 1363.55 485.27, 1358.40 485.59 C 1353.24 485.91, 1350.65 485.80, 1346.51 485.78 C 1342.37 485.75, 1340.45 484.98, 1337.68 485.47 C 1334.91 485.97, 1333.66 486.88, 1332.64 488.25 C 1331.63 489.61, 1331.59 490.92, 1332.61 492.30 C 1333.62 493.69, 1334.86 494.70, 1337.72 495.17 C 1340.57 495.64, 1342.61 495.04, 1346.88 494.67 C 1351.16 494.29, 1353.82 493.89, 1359.09 493.28 C 1364.36 492.66, 1367.49 492.31, 1373.25 491.59 C 1379.01 490.86, 1382.24 490.45, 1387.89 489.65 C 1393.55 488.85, 1396.52 488.46, 1401.53 487.60 C 1406.54 486.74, 1409.17 486.81, 1412.93 485.33 C 1416.69 483.85, 1418.54 482.85, 1420.33 480.19 C 1422.13 477.53, 1422.30 475.14, 1421.91 472.05 C 1421.52 468.96, 1420.82 466.94, 1418.37 464.72 C 1415.91 462.50, 1413.58 462.45, 1409.63 460.94 C 1405.67 459.43, 1403.14 458.83, 1398.58 457.15 C 1394.03 455.46, 1391.30 454.49, 1386.86 452.52 C 1382.43 450.54, 1379.88 449.30, 1376.43 447.27 C 1372.97 445.25, 1371.55 443.84, 1369.60 442.39 C 1367.65 440.94, 1367.07 440.90, 1366.70 440.03 C 1366.32 439.16, 1366.57 439.42, 1367.74 438.03 C 1368.90 436.63, 1369.58 435.16, 1372.52 433.06 C 1375.45 430.97, 1377.93 429.53, 1382.41 427.55 C 1386.90 425.57, 1389.93 424.55, 1394.94 423.17 C 1399.96 421.79, 1402.88 421.10, 1407.49 420.65 C 1412.09 420.21, 1414.48 420.67, 1417.95 420.94 C 1421.41 421.21, 1422.52 422.19, 1424.81 422.00 C 1427.11 421.81, 1428.16 421.46, 1429.42 419.99 C 1430.67 418.53, 1431.58 416.70, 1431.10 414.69" style="stroke: black; fill: black;"/></svg>